STARTFONT 2.1
FONT psf
SIZE 29 75 75
FONTBOUNDINGBOX 12 29 0 -7
STARTPROPERTIES 3
FONT_DESCENT 7
FONT_ASCENT 22
DEFAULT_CHAR 255
ENDPROPERTIES
CHARS 512
STARTCHAR C0000
ENCODING 0
SWIDTH 666 0
DWIDTH 12 0
BBX 12 29 0 -7
BITMAP
0000
0000
0000
0000
0000
0000
0000
0000
0000
0000
0000
0000
0000
0600
0f00
1980
30c0
6060
30c0
1980
0f00
0600
0000
0000
0000
0000
0000
0000
0000
ENDCHAR
STARTCHAR C0001
ENCODING 1
SWIDTH 666 0
DWIDTH 12 0
BBX 12 29 0 -7
BITMAP
b6d0
b6d0
b6d0
b6d0
b6d0
b6d0
b6d0
b6d0
b6d0
b6d0
b6d0
b6d0
b6d0
b6d0
b6d0
b6d0
b6d0
b6d0
b6d0
b6d0
b6d0
b6d0
b6d0
b6d0
b6d0
b6d0
b6d0
b6d0
b6d0
ENDCHAR
STARTCHAR C0002
ENCODING 2
SWIDTH 666 0
DWIDTH 12 0
BBX 12 29 0 -7
BITMAP
0400
0400
0400
0400
0400
0400
0400
0400
0400
0400
0400
0400
0400
0400
0400
0400
0400
0400
0400
0400
0400
0400
0400
0400
0400
0400
0400
0400
0400
ENDCHAR
STARTCHAR C0003
ENCODING 3
SWIDTH 666 0
DWIDTH 12 0
BBX 12 29 0 -7
BITMAP
0400
0400
0400
0400
0400
0400
0400
0400
0400
0400
0400
0400
0400
0400
0400
0400
0400
fc00
0400
0400
0400
0400
0400
0400
0400
0400
0400
0400
0400
ENDCHAR
STARTCHAR C0004
ENCODING 4
SWIDTH 666 0
DWIDTH 12 0
BBX 12 29 0 -7
BITMAP
0000
0000
0000
0000
0000
0000
0000
0000
0000
0000
0000
0000
0000
0000
0000
0000
0000
fc00
0400
0400
0400
0400
0400
0400
0400
0400
0400
0400
0400
ENDCHAR
STARTCHAR C0005
ENCODING 5
SWIDTH 666 0
DWIDTH 12 0
BBX 12 29 0 -7
BITMAP
0400
0400
0400
0400
0400
0400
0400
0400
0400
0400
0400
0400
0400
0400
0400
0400
0400
07f0
0000
0000
0000
0000
0000
0000
0000
0000
0000
0000
0000
ENDCHAR
STARTCHAR C0006
ENCODING 6
SWIDTH 666 0
DWIDTH 12 0
BBX 12 29 0 -7
BITMAP
0400
0400
0400
0400
0400
0400
0400
0400
0400
0400
0400
0400
0400
0400
0400
0400
0400
fff0
0000
0000
0000
0000
0000
0000
0000
0000
0000
0000
0000
ENDCHAR
STARTCHAR C0007
ENCODING 7
SWIDTH 666 0
DWIDTH 12 0
BBX 12 29 0 -7
BITMAP
0000
0000
0000
0000
0000
0000
0000
0000
0000
0000
0000
0000
0000
0000
0000
0000
0000
fff0
0400
0400
0400
0400
0400
0400
0400
0400
0400
0400
0400
ENDCHAR
STARTCHAR C0008
ENCODING 8
SWIDTH 666 0
DWIDTH 12 0
BBX 12 29 0 -7
BITMAP
0400
0400
0400
0400
0400
0400
0400
0400
0400
0400
0400
0400
0400
0400
0400
0400
0400
07f0
0400
0400
0400
0400
0400
0400
0400
0400
0400
0400
0400
ENDCHAR
STARTCHAR C0009
ENCODING 9
SWIDTH 666 0
DWIDTH 12 0
BBX 12 29 0 -7
BITMAP
0000
0000
0000
0000
0000
0000
0000
0000
0000
0000
0000
0000
0000
0000
0000
0000
0000
fff0
0000
0000
0000
0000
0000
0000
0000
0000
0000
0000
0000
ENDCHAR
STARTCHAR C000a
ENCODING 10
SWIDTH 666 0
DWIDTH 12 0
BBX 12 29 0 -7
BITMAP
0400
0400
0400
0400
0400
0400
0400
0400
0400
0400
0400
0400
0400
0400
0400
0400
0400
fff0
0400
0400
0400
0400
0400
0400
0400
0400
0400
0400
0400
ENDCHAR
STARTCHAR C000b
ENCODING 11
SWIDTH 666 0
DWIDTH 12 0
BBX 12 29 0 -7
BITMAP
0400
0400
0400
0400
0400
0400
0400
0400
0400
0400
0400
0400
0400
0400
0400
0400
0400
fc00
0000
0000
0000
0000
0000
0000
0000
0000
0000
0000
0000
ENDCHAR
STARTCHAR C000c
ENCODING 12
SWIDTH 666 0
DWIDTH 12 0
BBX 12 29 0 -7
BITMAP
0000
0000
0000
0000
0000
0000
0000
0000
0000
0000
0000
0000
0000
0000
0000
0000
0000
07f0
0400
0400
0400
0400
0400
0400
0400
0400
0400
0400
0400
ENDCHAR
STARTCHAR C000d
ENCODING 13
SWIDTH 666 0
DWIDTH 12 0
BBX 12 29 0 -7
BITMAP
fff0
fff0
fff0
fff0
fff0
fff0
fff0
fff0
fff0
fff0
fff0
fff0
fff0
fff0
fff0
fff0
fff0
fff0
fff0
fff0
fff0
fff0
fff0
fff0
fff0
fff0
fff0
fff0
fff0
ENDCHAR
STARTCHAR C000e
ENCODING 14
SWIDTH 666 0
DWIDTH 12 0
BBX 12 29 0 -7
BITMAP
4920
4920
4920
4920
4920
4920
4920
4920
4920
4920
4920
4920
4920
4920
4920
4920
4920
4920
4920
4920
4920
4920
4920
4920
4920
4920
4920
4920
4920
ENDCHAR
STARTCHAR C000f
ENCODING 15
SWIDTH 666 0
DWIDTH 12 0
BBX 12 29 0 -7
BITMAP
0000
0000
0000
0000
0000
0000
0000
0000
0000
0000
0000
0000
0000
3fc0
3fc0
3fc0
3fc0
3fc0
3fc0
3fc0
3fc0
0000
0000
0000
0000
0000
0000
0000
0000
ENDCHAR
STARTCHAR C0010
ENCODING 16
SWIDTH 666 0
DWIDTH 12 0
BBX 12 29 0 -7
BITMAP
0000
0000
0000
0000
0000
0000
0000
0000
0000
0000
0000
0600
0600
1f80
36c0
26c0
6600
6600
6600
6600
6640
36c0
1f80
0600
0600
0000
0000
0000
0000
ENDCHAR
STARTCHAR C0011
ENCODING 17
SWIDTH 666 0
DWIDTH 12 0
BBX 12 29 0 -7
BITMAP
0000
0000
0000
0000
0000
0000
0000
0000
0000
0f80
1cc0
18c0
1800
1800
1800
7e00
7e00
1800
1800
1800
1800
3e20
7fe0
61c0
0000
0000
0000
0000
0000
ENDCHAR
STARTCHAR C0012
ENCODING 18
SWIDTH 666 0
DWIDTH 12 0
BBX 12 29 0 -7
BITMAP
0000
0000
0000
0000
0000
0000
0000
0000
0000
f070
6020
3040
1880
1880
0d00
0600
0600
1f80
0600
1f80
0600
0600
0f00
0000
0000
0000
0000
0000
0000
ENDCHAR
STARTCHAR C0013
ENCODING 19
SWIDTH 666 0
DWIDTH 12 0
BBX 12 29 0 -7
BITMAP
0000
0000
0000
0000
0000
0000
0000
0000
0000
0000
07c0
08e0
1040
3000
6000
ff80
6000
ff00
6000
3000
3820
1c60
0780
0000
0000
0000
0000
0000
0000
ENDCHAR
STARTCHAR C0014
ENCODING 20
SWIDTH 666 0
DWIDTH 12 0
BBX 12 29 0 -7
BITMAP
0000
0000
0000
0000
0000
0000
0000
0000
0000
0000
5f00
60c0
4060
00e0
0380
7fe0
0e00
7fe0
3800
7000
6060
30e0
0fa0
0000
0000
0000
0000
0000
0000
ENDCHAR
STARTCHAR C0015
ENCODING 21
SWIDTH 666 0
DWIDTH 12 0
BBX 12 29 0 -7
BITMAP
0000
0000
0000
0000
0000
0000
0000
0000
0000
1000
3000
5000
1040
1080
1100
3a00
0540
0940
1140
2240
43e0
0040
0040
0000
0000
0000
0000
0000
0000
ENDCHAR
STARTCHAR C0016
ENCODING 22
SWIDTH 666 0
DWIDTH 12 0
BBX 12 29 0 -7
BITMAP
0000
0000
0000
0000
0000
0000
0000
0000
0000
1000
3000
5000
1040
1080
1100
3a00
05c0
0a20
1020
20c0
4100
0200
03e0
0000
0000
0000
0000
0000
0000
ENDCHAR
STARTCHAR C0017
ENCODING 23
SWIDTH 666 0
DWIDTH 12 0
BBX 12 29 0 -7
BITMAP
0000
0000
0000
0000
0000
0000
0000
0000
3000
4800
0800
3040
0880
4900
3200
0540
0940
1140
2240
43e0
0040
0040
0000
0000
0000
0000
0000
0000
0000
ENDCHAR
STARTCHAR C0018
ENCODING 24
SWIDTH 666 0
DWIDTH 12 0
BBX 12 29 0 -7
BITMAP
0000
0000
0000
0000
0000
0000
0000
0000
0000
0000
0000
0000
0000
0800
1000
2000
4000
fff0
4000
2000
1000
0800
0000
0000
0000
0000
0000
0000
0000
ENDCHAR
STARTCHAR C0019
ENCODING 25
SWIDTH 666 0
DWIDTH 12 0
BBX 12 29 0 -7
BITMAP
0000
0000
0000
0000
0000
0000
0000
0000
0000
0000
0000
0400
0e00
1500
2480
4440
0400
0400
0400
0400
0400
0400
0400
0000
0000
0000
0000
0000
0000
ENDCHAR
STARTCHAR C001a
ENCODING 26
SWIDTH 666 0
DWIDTH 12 0
BBX 12 29 0 -7
BITMAP
0000
0000
0000
0000
0000
0000
0000
0000
0000
0000
0000
0000
0000
0100
0080
0040
0020
fff0
0020
0040
0080
0100
0000
0000
0000
0000
0000
0000
0000
ENDCHAR
STARTCHAR C001b
ENCODING 27
SWIDTH 666 0
DWIDTH 12 0
BBX 12 29 0 -7
BITMAP
0000
0000
0000
0000
0000
0000
0000
0000
0000
0000
0000
0000
0400
0400
0400
0400
0400
0400
0400
4440
2480
1500
0e00
0400
0000
0000
0000
0000
0000
ENDCHAR
STARTCHAR C001c
ENCODING 28
SWIDTH 666 0
DWIDTH 12 0
BBX 12 29 0 -7
BITMAP
0000
0000
0000
0000
0000
0000
0000
0000
6060
7040
3880
1f80
11c0
20e0
6060
6060
6060
6060
7040
3880
1f80
11c0
20e0
6060
0000
0000
0000
0000
0000
ENDCHAR
STARTCHAR C001d
ENCODING 29
SWIDTH 666 0
DWIDTH 12 0
BBX 12 29 0 -7
BITMAP
0000
0000
0000
0000
0000
0000
0000
0000
0000
0000
0000
0000
3fc0
3fc0
3fc0
3fc0
3fc0
3fc0
3fc0
3fc0
3fc0
3fc0
3fc0
3fc0
0000
0000
0000
0000
0000
ENDCHAR
STARTCHAR C001e
ENCODING 30
SWIDTH 666 0
DWIDTH 12 0
BBX 12 29 0 -7
BITMAP
0000
0000
0000
0000
0000
0000
0000
0000
0000
0000
0000
0000
3fc0
3fc0
3fc0
3fc0
3fc0
3fc0
3fc0
3fc0
3fc0
3fc0
3fc0
3fc0
0000
0000
0000
0000
0000
ENDCHAR
STARTCHAR C001f
ENCODING 31
SWIDTH 666 0
DWIDTH 12 0
BBX 12 29 0 -7
BITMAP
0100
0200
0400
0e00
1710
3d10
6110
8320
0220
0620
0e40
1c80
3f10
7020
7cc0
e300
f860
f780
7010
7010
3820
3ce0
1fc0
0700
d9a0
a040
1080
01c0
0620
ENDCHAR
STARTCHAR C0020
ENCODING 32
SWIDTH 666 0
DWIDTH 12 0
BBX 12 29 0 -7
BITMAP
0000
0000
0000
0000
0000
0000
0000
0000
0000
0000
0000
0000
0000
0000
0000
0000
0000
0000
0000
0000
0000
0000
0000
0000
0000
0000
0000
0000
0000
ENDCHAR
STARTCHAR C0021
ENCODING 33
SWIDTH 666 0
DWIDTH 12 0
BBX 12 29 0 -7
BITMAP
0000
0000
0000
0000
0000
0000
0000
0600
0f00
0f00
0f00
0f00
0f00
0f00
0f00
0600
0600
0600
0600
0000
0000
0600
0600
0000
0000
0000
0000
0000
0000
ENDCHAR
STARTCHAR C0022
ENCODING 34
SWIDTH 666 0
DWIDTH 12 0
BBX 12 29 0 -7
BITMAP
0000
0000
0000
0000
0000
0000
0000
30c0
79e0
79e0
1860
1860
30c0
2080
0000
0000
0000
0000
0000
0000
0000
0000
0000
0000
0000
0000
0000
0000
0000
ENDCHAR
STARTCHAR C0023
ENCODING 35
SWIDTH 666 0
DWIDTH 12 0
BBX 12 29 0 -7
BITMAP
0000
0000
0000
0000
0000
0000
0000
0000
0330
0330
0330
0660
1ff0
1ff0
0cc0
0cc0
1980
1980
7fc0
7fc0
3300
6600
6600
0000
0000
0000
0000
0000
0000
ENDCHAR
STARTCHAR C0024
ENCODING 36
SWIDTH 666 0
DWIDTH 12 0
BBX 12 29 0 -7
BITMAP
0000
0000
0000
0000
0000
0000
0000
0000
0600
1f80
3fc0
66e0
6660
6600
3e00
1f80
07c0
0660
6660
7660
3fc0
1f80
0600
0000
0000
0000
0000
0000
0000
ENDCHAR
STARTCHAR C0025
ENCODING 37
SWIDTH 666 0
DWIDTH 12 0
BBX 12 29 0 -7
BITMAP
0000
0000
0000
0000
0000
0000
0000
0000
0000
38c0
4cc0
4580
6580
3b00
0300
0600
0600
0c00
0dc0
1a60
1a20
3320
31c0
0000
0000
0000
0000
0000
0000
ENDCHAR
STARTCHAR C0026
ENCODING 38
SWIDTH 666 0
DWIDTH 12 0
BBX 12 29 0 -7
BITMAP
0000
0000
0000
0000
0000
0000
0000
0000
0e00
1300
2180
3180
3100
1a00
1c00
1e00
2700
6320
61a0
60c0
70c0
3960
1e20
0000
0000
0000
0000
0000
0000
ENDCHAR
STARTCHAR C0027
ENCODING 39
SWIDTH 666 0
DWIDTH 12 0
BBX 12 29 0 -7
BITMAP
0000
0000
0000
0000
0000
0000
0000
0c00
1e00
1e00
0600
0600
0c00
0800
0000
0000
0000
0000
0000
0000
0000
0000
0000
0000
0000
0000
0000
0000
0000
ENDCHAR
STARTCHAR C0028
ENCODING 40
SWIDTH 666 0
DWIDTH 12 0
BBX 12 29 0 -7
BITMAP
0000
0000
0000
0000
0000
0000
0180
0300
0600
0600
0c00
0c00
0c00
1c00
1800
1800
1800
1800
1c00
0c00
0c00
0600
0600
0300
0180
0000
0000
0000
0000
ENDCHAR
STARTCHAR C0029
ENCODING 41
SWIDTH 666 0
DWIDTH 12 0
BBX 12 29 0 -7
BITMAP
0000
0000
0000
0000
0000
0000
1800
0c00
0600
0600
0300
0300
0300
0380
0180
0180
0180
0180
0380
0300
0300
0600
0600
0c00
1800
0000
0000
0000
0000
ENDCHAR
STARTCHAR C002a
ENCODING 42
SWIDTH 666 0
DWIDTH 12 0
BBX 12 29 0 -7
BITMAP
0000
0000
0000
0000
0000
0000
0000
0000
0000
0000
0000
0000
0f00
0600
6660
76e0
1980
0000
1980
76e0
6660
0600
0f00
0000
0000
0000
0000
0000
0000
ENDCHAR
STARTCHAR C002b
ENCODING 43
SWIDTH 666 0
DWIDTH 12 0
BBX 12 29 0 -7
BITMAP
0000
0000
0000
0000
0000
0000
0000
0000
0000
0000
0000
0000
0000
0600
0600
0600
0600
7fe0
0600
0600
0600
0600
0000
0000
0000
0000
0000
0000
0000
ENDCHAR
STARTCHAR C002c
ENCODING 44
SWIDTH 666 0
DWIDTH 12 0
BBX 12 29 0 -7
BITMAP
0000
0000
0000
0000
0000
0000
0000
0000
0000
0000
0000
0000
0000
0000
0000
0000
0000
0000
0000
0c00
1e00
1e00
0600
0600
0c00
0800
0000
0000
0000
ENDCHAR
STARTCHAR C002d
ENCODING 45
SWIDTH 666 0
DWIDTH 12 0
BBX 12 29 0 -7
BITMAP
0000
0000
0000
0000
0000
0000
0000
0000
0000
0000
0000
0000
0000
0000
0000
0000
0000
3fc0
0000
0000
0000
0000
0000
0000
0000
0000
0000
0000
0000
ENDCHAR
STARTCHAR C002e
ENCODING 46
SWIDTH 666 0
DWIDTH 12 0
BBX 12 29 0 -7
BITMAP
0000
0000
0000
0000
0000
0000
0000
0000
0000
0000
0000
0000
0000
0000
0000
0000
0000
0000
0000
0c00
1e00
1e00
0c00
0000
0000
0000
0000
0000
0000
ENDCHAR
STARTCHAR C002f
ENCODING 47
SWIDTH 666 0
DWIDTH 12 0
BBX 12 29 0 -7
BITMAP
0000
0000
0000
0000
0000
0000
0000
0000
0060
00c0
00c0
0180
0180
0300
0300
0600
0600
0c00
0c00
1800
1800
3000
3000
6000
0000
0000
0000
0000
0000
ENDCHAR
STARTCHAR C0030
ENCODING 48
SWIDTH 666 0
DWIDTH 12 0
BBX 12 29 0 -7
BITMAP
0000
0000
0000
0000
0000
0000
0000
0000
0700
0f80
1180
10c0
30c0
30c0
30c0
30c0
30c0
30c0
30c0
3080
1880
1f00
0e00
0000
0000
0000
0000
0000
0000
ENDCHAR
STARTCHAR C0031
ENCODING 49
SWIDTH 666 0
DWIDTH 12 0
BBX 12 29 0 -7
BITMAP
0000
0000
0000
0000
0000
0000
0000
0000
0200
0600
0e00
1e00
3600
0600
0600
0600
0600
0600
0600
0600
0600
0600
3fc0
0000
0000
0000
0000
0000
0000
ENDCHAR
STARTCHAR C0032
ENCODING 50
SWIDTH 666 0
DWIDTH 12 0
BBX 12 29 0 -7
BITMAP
0000
0000
0000
0000
0000
0000
0000
0000
1f00
3f80
61c0
40c0
00c0
00c0
00c0
0180
0300
0600
0c00
1800
3020
7fe0
7fe0
0000
0000
0000
0000
0000
0000
ENDCHAR
STARTCHAR C0033
ENCODING 51
SWIDTH 666 0
DWIDTH 12 0
BBX 12 29 0 -7
BITMAP
0000
0000
0000
0000
0000
0000
0000
0000
0f80
1fc0
20e0
4060
0060
00e0
07c0
0fc0
00e0
0060
0060
4060
6040
3f80
1f00
0000
0000
0000
0000
0000
0000
ENDCHAR
STARTCHAR C0034
ENCODING 52
SWIDTH 666 0
DWIDTH 12 0
BBX 12 29 0 -7
BITMAP
0000
0000
0000
0000
0000
0000
0000
0000
0180
0380
0380
0580
0580
0980
0980
1180
1180
2180
3fe0
7fe0
0180
0180
0180
0000
0000
0000
0000
0000
0000
ENDCHAR
STARTCHAR C0035
ENCODING 53
SWIDTH 666 0
DWIDTH 12 0
BBX 12 29 0 -7
BITMAP
0000
0000
0000
0000
0000
0000
0000
0000
0fc0
0fc0
1000
1000
2000
3f80
31c0
00e0
0060
0060
0060
4060
6060
30c0
1f80
0000
0000
0000
0000
0000
0000
ENDCHAR
STARTCHAR C0036
ENCODING 54
SWIDTH 666 0
DWIDTH 12 0
BBX 12 29 0 -7
BITMAP
0000
0000
0000
0000
0000
0000
0000
0000
0700
0c00
1800
3000
3000
6000
6780
6fc0
70e0
6060
6060
6060
7040
3f80
1f00
0000
0000
0000
0000
0000
0000
ENDCHAR
STARTCHAR C0037
ENCODING 55
SWIDTH 666 0
DWIDTH 12 0
BBX 12 29 0 -7
BITMAP
0000
0000
0000
0000
0000
0000
0000
0000
1fe0
3fe0
6040
0040
00c0
0080
0080
0180
0100
0100
0300
0200
0200
0600
0400
0000
0000
0000
0000
0000
0000
ENDCHAR
STARTCHAR C0038
ENCODING 56
SWIDTH 666 0
DWIDTH 12 0
BBX 12 29 0 -7
BITMAP
0000
0000
0000
0000
0000
0000
0000
0000
0f00
1180
30c0
30c0
30c0
1880
0d00
0600
0b00
1180
30c0
30c0
30c0
1880
0f00
0000
0000
0000
0000
0000
0000
ENDCHAR
STARTCHAR C0039
ENCODING 57
SWIDTH 666 0
DWIDTH 12 0
BBX 12 29 0 -7
BITMAP
0000
0000
0000
0000
0000
0000
0000
0000
0f80
11c0
20e0
6060
6060
6060
70e0
3f60
1e60
0060
00c0
00c0
0180
0700
3c00
0000
0000
0000
0000
0000
0000
ENDCHAR
STARTCHAR C003a
ENCODING 58
SWIDTH 666 0
DWIDTH 12 0
BBX 12 29 0 -7
BITMAP
0000
0000
0000
0000
0000
0000
0000
0000
0000
0000
0000
0000
0000
0c00
1e00
1e00
0c00
0000
0000
0c00
1e00
1e00
0c00
0000
0000
0000
0000
0000
0000
ENDCHAR
STARTCHAR C003b
ENCODING 59
SWIDTH 666 0
DWIDTH 12 0
BBX 12 29 0 -7
BITMAP
0000
0000
0000
0000
0000
0000
0000
0000
0000
0000
0000
0000
0000
0c00
1e00
1e00
0c00
0000
0000
0c00
1e00
1e00
0600
0600
0c00
0800
0000
0000
0000
ENDCHAR
STARTCHAR C003c
ENCODING 60
SWIDTH 666 0
DWIDTH 12 0
BBX 12 29 0 -7
BITMAP
0000
0000
0000
0000
0000
0000
0000
0000
0000
0000
0000
0000
0000
0060
01c0
0700
1c00
7000
7000
1c00
0700
01c0
0060
0000
0000
0000
0000
0000
0000
ENDCHAR
STARTCHAR C003d
ENCODING 61
SWIDTH 666 0
DWIDTH 12 0
BBX 12 29 0 -7
BITMAP
0000
0000
0000
0000
0000
0000
0000
0000
0000
0000
0000
0000
0000
0000
0000
3fc0
0000
0000
0000
3fc0
0000
0000
0000
0000
0000
0000
0000
0000
0000
ENDCHAR
STARTCHAR C003e
ENCODING 62
SWIDTH 666 0
DWIDTH 12 0
BBX 12 29 0 -7
BITMAP
0000
0000
0000
0000
0000
0000
0000
0000
0000
0000
0000
0000
0000
6000
3800
0e00
0380
00e0
00e0
0380
0e00
3800
6000
0000
0000
0000
0000
0000
0000
ENDCHAR
STARTCHAR C003f
ENCODING 63
SWIDTH 666 0
DWIDTH 12 0
BBX 12 29 0 -7
BITMAP
0000
0000
0000
0000
0000
0000
0000
0000
0f00
1b80
21c0
20c0
00c0
0080
0100
0200
0600
0600
0600
0000
0000
0600
0600
0000
0000
0000
0000
0000
0000
ENDCHAR
STARTCHAR C0040
ENCODING 64
SWIDTH 666 0
DWIDTH 12 0
BBX 12 29 0 -7
BITMAP
0000
0000
0000
0000
0000
0000
0000
0000
0000
0000
0780
1840
2020
4690
4990
8910
9310
9220
9660
4b80
4010
3060
0f80
0000
0000
0000
0000
0000
0000
ENDCHAR
STARTCHAR C0041
ENCODING 65
SWIDTH 666 0
DWIDTH 12 0
BBX 12 29 0 -7
BITMAP
0000
0000
0000
0000
0000
0000
0000
0000
0000
0600
0600
0b00
0b00
0900
1180
1180
1080
3fc0
20c0
2040
4060
4060
e0f0
0000
0000
0000
0000
0000
0000
ENDCHAR
STARTCHAR C0042
ENCODING 66
SWIDTH 666 0
DWIDTH 12 0
BBX 12 29 0 -7
BITMAP
0000
0000
0000
0000
0000
0000
0000
0000
0000
ff00
6080
60c0
60c0
60c0
6180
7f80
60c0
6060
6060
6060
6060
60c0
ff80
0000
0000
0000
0000
0000
0000
ENDCHAR
STARTCHAR C0043
ENCODING 67
SWIDTH 666 0
DWIDTH 12 0
BBX 12 29 0 -7
BITMAP
0000
0000
0000
0000
0000
0000
0000
0000
0000
0fc0
1060
2020
2000
6000
6000
6000
6000
6000
6000
2000
3020
1840
0f80
0000
0000
0000
0000
0000
0000
ENDCHAR
STARTCHAR C0044
ENCODING 68
SWIDTH 666 0
DWIDTH 12 0
BBX 12 29 0 -7
BITMAP
0000
0000
0000
0000
0000
0000
0000
0000
0000
ff00
61c0
60c0
6060
6060
6060
6060
6060
6060
6060
6060
6040
6180
fe00
0000
0000
0000
0000
0000
0000
ENDCHAR
STARTCHAR C0045
ENCODING 69
SWIDTH 666 0
DWIDTH 12 0
BBX 12 29 0 -7
BITMAP
0000
0000
0000
0000
0000
0000
0000
0000
0000
7fc0
3040
3040
3000
3000
3080
3f80
3080
3000
3000
3000
3020
3020
7fe0
0000
0000
0000
0000
0000
0000
ENDCHAR
STARTCHAR C0046
ENCODING 70
SWIDTH 666 0
DWIDTH 12 0
BBX 12 29 0 -7
BITMAP
0000
0000
0000
0000
0000
0000
0000
0000
0000
7fc0
3040
3040
3000
3000
3080
3f80
3080
3000
3000
3000
3000
3000
7800
0000
0000
0000
0000
0000
0000
ENDCHAR
STARTCHAR C0047
ENCODING 71
SWIDTH 666 0
DWIDTH 12 0
BBX 12 29 0 -7
BITMAP
0000
0000
0000
0000
0000
0000
0000
0000
0000
0fc0
1060
2020
2000
6000
6000
6000
6000
61f0
6060
2060
3060
1860
0f80
0000
0000
0000
0000
0000
0000
ENDCHAR
STARTCHAR C0048
ENCODING 72
SWIDTH 666 0
DWIDTH 12 0
BBX 12 29 0 -7
BITMAP
0000
0000
0000
0000
0000
0000
0000
0000
0000
f0f0
6060
6060
6060
6060
6060
7fe0
6060
6060
6060
6060
6060
6060
f0f0
0000
0000
0000
0000
0000
0000
ENDCHAR
STARTCHAR C0049
ENCODING 73
SWIDTH 666 0
DWIDTH 12 0
BBX 12 29 0 -7
BITMAP
0000
0000
0000
0000
0000
0000
0000
0000
0000
1f80
0600
0600
0600
0600
0600
0600
0600
0600
0600
0600
0600
0600
1f80
0000
0000
0000
0000
0000
0000
ENDCHAR
STARTCHAR C004a
ENCODING 74
SWIDTH 666 0
DWIDTH 12 0
BBX 12 29 0 -7
BITMAP
0000
0000
0000
0000
0000
0000
0000
0000
0000
1f80
0600
0600
0600
0600
0600
0600
0600
0600
0600
0600
0600
0600
0600
0600
0600
0400
3800
3000
0000
ENDCHAR
STARTCHAR C004b
ENCODING 75
SWIDTH 666 0
DWIDTH 12 0
BBX 12 29 0 -7
BITMAP
0000
0000
0000
0000
0000
0000
0000
0000
0000
f0e0
6180
6300
6600
6c00
7800
7800
7c00
6e00
6700
6380
61c0
60e0
f070
0000
0000
0000
0000
0000
0000
ENDCHAR
STARTCHAR C004c
ENCODING 76
SWIDTH 666 0
DWIDTH 12 0
BBX 12 29 0 -7
BITMAP
0000
0000
0000
0000
0000
0000
0000
0000
0000
7800
3000
3000
3000
3000
3000
3000
3000
3000
3000
3000
3020
3020
7fe0
0000
0000
0000
0000
0000
0000
ENDCHAR
STARTCHAR C004d
ENCODING 77
SWIDTH 666 0
DWIDTH 12 0
BBX 12 29 0 -7
BITMAP
0000
0000
0000
0000
0000
0000
0000
0000
0000
e070
60e0
70e0
70e0
70e0
5960
5960
5960
4d60
4e60
4e60
4460
4460
e4f0
0000
0000
0000
0000
0000
0000
ENDCHAR
STARTCHAR C004e
ENCODING 78
SWIDTH 666 0
DWIDTH 12 0
BBX 12 29 0 -7
BITMAP
0000
0000
0000
0000
0000
0000
0000
0000
0000
c070
6020
7020
7820
5820
4c20
4620
4720
4320
41a0
40e0
40e0
4060
e030
0000
0000
0000
0000
0000
0000
ENDCHAR
STARTCHAR C004f
ENCODING 79
SWIDTH 666 0
DWIDTH 12 0
BBX 12 29 0 -7
BITMAP
0000
0000
0000
0000
0000
0000
0000
0000
0000
0f00
11c0
20c0
2060
6060
6060
6060
6060
6060
6060
2040
3040
1880
0f00
0000
0000
0000
0000
0000
0000
ENDCHAR
STARTCHAR C0050
ENCODING 80
SWIDTH 666 0
DWIDTH 12 0
BBX 12 29 0 -7
BITMAP
0000
0000
0000
0000
0000
0000
0000
0000
0000
7f80
30c0
3060
3060
3060
30c0
3780
3000
3000
3000
3000
3000
3000
7800
0000
0000
0000
0000
0000
0000
ENDCHAR
STARTCHAR C0051
ENCODING 81
SWIDTH 666 0
DWIDTH 12 0
BBX 12 29 0 -7
BITMAP
0000
0000
0000
0000
0000
0000
0000
0000
0000
0f00
11c0
20c0
2060
6060
6060
6060
6060
6060
6060
3040
3840
1f80
0e00
1f00
2390
01e0
0000
0000
0000
ENDCHAR
STARTCHAR C0052
ENCODING 82
SWIDTH 666 0
DWIDTH 12 0
BBX 12 29 0 -7
BITMAP
0000
0000
0000
0000
0000
0000
0000
0000
0000
ff00
6180
60c0
60c0
60c0
6080
7f00
7c00
6e00
6700
6380
61c0
60e0
f070
0000
0000
0000
0000
0000
0000
ENDCHAR
STARTCHAR C0053
ENCODING 83
SWIDTH 666 0
DWIDTH 12 0
BBX 12 29 0 -7
BITMAP
0000
0000
0000
0000
0000
0000
0000
0000
0000
1fe0
3060
6020
6020
7000
3c00
1e00
0780
01c0
00e0
4060
4060
60c0
7f80
0000
0000
0000
0000
0000
0000
ENDCHAR
STARTCHAR C0054
ENCODING 84
SWIDTH 666 0
DWIDTH 12 0
BBX 12 29 0 -7
BITMAP
0000
0000
0000
0000
0000
0000
0000
0000
0000
7fe0
4620
0600
0600
0600
0600
0600
0600
0600
0600
0600
0600
0600
1f80
0000
0000
0000
0000
0000
0000
ENDCHAR
STARTCHAR C0055
ENCODING 85
SWIDTH 666 0
DWIDTH 12 0
BBX 12 29 0 -7
BITMAP
0000
0000
0000
0000
0000
0000
0000
0000
0000
f070
6020
6020
6020
6020
6020
6020
6020
6020
6020
6020
7040
3fc0
1f80
0000
0000
0000
0000
0000
0000
ENDCHAR
STARTCHAR C0056
ENCODING 86
SWIDTH 666 0
DWIDTH 12 0
BBX 12 29 0 -7
BITMAP
0000
0000
0000
0000
0000
0000
0000
0000
0000
e0e0
6040
3080
3080
3080
1900
1900
1900
0a00
0e00
0e00
0400
0400
0400
0000
0000
0000
0000
0000
0000
ENDCHAR
STARTCHAR C0057
ENCODING 87
SWIDTH 666 0
DWIDTH 12 0
BBX 12 29 0 -7
BITMAP
0000
0000
0000
0000
0000
0000
0000
0000
0000
fef0
6620
6620
6620
7620
7740
3340
3740
3bc0
3b80
1980
1980
1980
1980
0000
0000
0000
0000
0000
0000
ENDCHAR
STARTCHAR C0058
ENCODING 88
SWIDTH 666 0
DWIDTH 12 0
BBX 12 29 0 -7
BITMAP
0000
0000
0000
0000
0000
0000
0000
0000
0000
f070
6020
3040
3880
1880
0d00
0600
0600
0b00
1180
11c0
20c0
4060
e0f0
0000
0000
0000
0000
0000
0000
ENDCHAR
STARTCHAR C0059
ENCODING 89
SWIDTH 666 0
DWIDTH 12 0
BBX 12 29 0 -7
BITMAP
0000
0000
0000
0000
0000
0000
0000
0000
0000
f070
6020
3040
1880
1880
0d00
0600
0600
0600
0600
0600
0600
0600
0f00
0000
0000
0000
0000
0000
0000
ENDCHAR
STARTCHAR C005a
ENCODING 90
SWIDTH 666 0
DWIDTH 12 0
BBX 12 29 0 -7
BITMAP
0000
0000
0000
0000
0000
0000
0000
0000
0000
3fe0
20c0
00c0
0180
0180
0300
0300
0600
0600
0c00
0c00
1800
1820
3fe0
0000
0000
0000
0000
0000
0000
ENDCHAR
STARTCHAR C005b
ENCODING 91
SWIDTH 666 0
DWIDTH 12 0
BBX 12 29 0 -7
BITMAP
0000
0000
0000
0000
0000
0000
0000
0000
0f80
0f80
0c00
0c00
0c00
0c00
0c00
0c00
0c00
0c00
0c00
0c00
0c00
0f80
0f80
0000
0000
0000
0000
0000
0000
ENDCHAR
STARTCHAR C005c
ENCODING 92
SWIDTH 666 0
DWIDTH 12 0
BBX 12 29 0 -7
BITMAP
0000
0000
0000
0000
0000
0000
0000
0000
6000
3000
3000
1800
1800
0c00
0c00
0600
0600
0300
0300
0180
0180
00c0
00c0
0060
0000
0000
0000
0000
0000
ENDCHAR
STARTCHAR C005d
ENCODING 93
SWIDTH 666 0
DWIDTH 12 0
BBX 12 29 0 -7
BITMAP
0000
0000
0000
0000
0000
0000
0000
0000
1f00
1f00
0300
0300
0300
0300
0300
0300
0300
0300
0300
0300
0300
1f00
1f00
0000
0000
0000
0000
0000
0000
ENDCHAR
STARTCHAR C005e
ENCODING 94
SWIDTH 666 0
DWIDTH 12 0
BBX 12 29 0 -7
BITMAP
0000
0000
0000
0000
0000
0000
0000
0000
0400
0e00
1b00
3180
60c0
c060
0000
0000
0000
0000
0000
0000
0000
0000
0000
0000
0000
0000
0000
0000
0000
ENDCHAR
STARTCHAR C005f
ENCODING 95
SWIDTH 666 0
DWIDTH 12 0
BBX 12 29 0 -7
BITMAP
0000
0000
0000
0000
0000
0000
0000
0000
0000
0000
0000
0000
0000
0000
0000
0000
0000
0000
0000
0000
0000
0000
0000
0000
fff0
0000
0000
0000
0000
ENDCHAR
STARTCHAR C0060
ENCODING 96
SWIDTH 666 0
DWIDTH 12 0
BBX 12 29 0 -7
BITMAP
0000
0000
0000
0000
0000
0000
0000
0100
0300
0600
0600
0780
0780
0300
0000
0000
0000
0000
0000
0000
0000
0000
0000
0000
0000
0000
0000
0000
0000
ENDCHAR
STARTCHAR C0061
ENCODING 97
SWIDTH 666 0
DWIDTH 12 0
BBX 12 29 0 -7
BITMAP
0000
0000
0000
0000
0000
0000
0000
0000
0000
0000
0000
0000
0000
0f80
18c0
10c0
03c0
1cc0
30c0
30c0
30c0
39c0
1ee0
0000
0000
0000
0000
0000
0000
ENDCHAR
STARTCHAR C0062
ENCODING 98
SWIDTH 666 0
DWIDTH 12 0
BBX 12 29 0 -7
BITMAP
0000
0000
0000
0000
0000
0000
0000
0000
2000
6000
e000
6000
6000
6780
6fc0
70e0
6060
6060
6060
6060
7060
78c0
4f80
0000
0000
0000
0000
0000
0000
ENDCHAR
STARTCHAR C0063
ENCODING 99
SWIDTH 666 0
DWIDTH 12 0
BBX 12 29 0 -7
BITMAP
0000
0000
0000
0000
0000
0000
0000
0000
0000
0000
0000
0000
0000
1f80
31c0
20c0
6000
6000
6000
6000
7040
30c0
1f80
0000
0000
0000
0000
0000
0000
ENDCHAR
STARTCHAR C0064
ENCODING 100
SWIDTH 666 0
DWIDTH 12 0
BBX 12 29 0 -7
BITMAP
0000
0000
0000
0000
0000
0000
0000
0000
0060
00e0
0060
0060
0060
0f60
31e0
20e0
6060
6060
6060
6060
70e0
3960
1e70
0000
0000
0000
0000
0000
0000
ENDCHAR
STARTCHAR C0065
ENCODING 101
SWIDTH 666 0
DWIDTH 12 0
BBX 12 29 0 -7
BITMAP
0000
0000
0000
0000
0000
0000
0000
0000
0000
0000
0000
0000
0000
0f00
30c0
6060
6060
7fe0
6000
6000
3000
1860
0f80
0000
0000
0000
0000
0000
0000
ENDCHAR
STARTCHAR C0066
ENCODING 102
SWIDTH 666 0
DWIDTH 12 0
BBX 12 29 0 -7
BITMAP
0000
0000
0000
0000
0000
0000
0000
0000
0380
04c0
04c0
0c00
0c00
0c00
0c00
3f80
0c00
0c00
0c00
0c00
0c00
0c00
1e00
0000
0000
0000
0000
0000
0000
ENDCHAR
STARTCHAR C0067
ENCODING 103
SWIDTH 666 0
DWIDTH 12 0
BBX 12 29 0 -7
BITMAP
0000
0000
0000
0000
0000
0000
0000
0000
0000
0000
0000
0000
0000
1f20
31e0
60c0
60c0
60c0
3180
3f00
6000
7fc0
3fe0
2060
4020
4020
7fc0
3f80
0000
ENDCHAR
STARTCHAR C0068
ENCODING 104
SWIDTH 666 0
DWIDTH 12 0
BBX 12 29 0 -7
BITMAP
0000
0000
0000
0000
0000
0000
0000
0000
1000
3000
7000
3000
3000
3780
39c0
30c0
30c0
30c0
30c0
30c0
30c0
30c0
79e0
0000
0000
0000
0000
0000
0000
ENDCHAR
STARTCHAR C0069
ENCODING 105
SWIDTH 666 0
DWIDTH 12 0
BBX 12 29 0 -7
BITMAP
0000
0000
0000
0000
0000
0000
0000
0000
0000
0600
0600
0000
0000
1e00
0600
0600
0600
0600
0600
0600
0600
0600
1f80
0000
0000
0000
0000
0000
0000
ENDCHAR
STARTCHAR C006a
ENCODING 106
SWIDTH 666 0
DWIDTH 12 0
BBX 12 29 0 -7
BITMAP
0000
0000
0000
0000
0000
0000
0000
0000
0000
0180
0180
0000
0000
0780
0180
0180
0180
0180
0180
0180
0180
0180
0180
4180
6180
7100
3e00
1c00
0000
ENDCHAR
STARTCHAR C006b
ENCODING 107
SWIDTH 666 0
DWIDTH 12 0
BBX 12 29 0 -7
BITMAP
0000
0000
0000
0000
0000
0000
0000
0000
3000
7000
3000
3000
3000
30e0
3180
3300
3e00
3c00
3e00
3700
3380
31c0
78f0
0000
0000
0000
0000
0000
0000
ENDCHAR
STARTCHAR C006c
ENCODING 108
SWIDTH 666 0
DWIDTH 12 0
BBX 12 29 0 -7
BITMAP
0000
0000
0000
0000
0000
0000
0000
0000
1e00
0600
0600
0600
0600
0600
0600
0600
0600
0600
0600
0600
0600
0600
1f80
0000
0000
0000
0000
0000
0000
ENDCHAR
STARTCHAR C006d
ENCODING 109
SWIDTH 666 0
DWIDTH 12 0
BBX 12 29 0 -7
BITMAP
0000
0000
0000
0000
0000
0000
0000
0000
0000
0000
0000
0000
0000
ddc0
6ee0
6660
6660
6660
6660
6660
6660
6660
ef70
0000
0000
0000
0000
0000
0000
ENDCHAR
STARTCHAR C006e
ENCODING 110
SWIDTH 666 0
DWIDTH 12 0
BBX 12 29 0 -7
BITMAP
0000
0000
0000
0000
0000
0000
0000
0000
0000
0000
0000
0000
0000
2780
79c0
30c0
30c0
30c0
30c0
30c0
30c0
30c0
79e0
0000
0000
0000
0000
0000
0000
ENDCHAR
STARTCHAR C006f
ENCODING 111
SWIDTH 666 0
DWIDTH 12 0
BBX 12 29 0 -7
BITMAP
0000
0000
0000
0000
0000
0000
0000
0000
0000
0000
0000
0000
0000
0f80
11c0
20e0
6060
6060
6060
6060
7040
3880
1f00
0000
0000
0000
0000
0000
0000
ENDCHAR
STARTCHAR C0070
ENCODING 112
SWIDTH 666 0
DWIDTH 12 0
BBX 12 29 0 -7
BITMAP
0000
0000
0000
0000
0000
0000
0000
0000
0000
0000
0000
0000
0000
ef80
71c0
60e0
6060
6060
6060
6060
6040
7080
7f00
6000
6000
6000
6000
f000
0000
ENDCHAR
STARTCHAR C0071
ENCODING 113
SWIDTH 666 0
DWIDTH 12 0
BBX 12 29 0 -7
BITMAP
0000
0000
0000
0000
0000
0000
0000
0000
0000
0000
0000
0000
0000
0f20
11e0
20e0
6060
6060
6060
6060
7060
38e0
1fe0
0060
0060
0060
0060
00f0
0000
ENDCHAR
STARTCHAR C0072
ENCODING 114
SWIDTH 666 0
DWIDTH 12 0
BBX 12 29 0 -7
BITMAP
0000
0000
0000
0000
0000
0000
0000
0000
0000
0000
0000
0000
0000
39c0
1a60
1c60
1800
1800
1800
1800
1800
1800
3c00
0000
0000
0000
0000
0000
0000
ENDCHAR
STARTCHAR C0073
ENCODING 115
SWIDTH 666 0
DWIDTH 12 0
BBX 12 29 0 -7
BITMAP
0000
0000
0000
0000
0000
0000
0000
0000
0000
0000
0000
0000
0000
1fc0
30c0
3040
3800
1e00
0780
01c0
20c0
30c0
3f80
0000
0000
0000
0000
0000
0000
ENDCHAR
STARTCHAR C0074
ENCODING 116
SWIDTH 666 0
DWIDTH 12 0
BBX 12 29 0 -7
BITMAP
0000
0000
0000
0000
0000
0000
0000
0000
0000
0000
0400
0400
0c00
7fc0
0c00
0c00
0c00
0c00
0c00
0c00
0c20
0e40
0780
0000
0000
0000
0000
0000
0000
ENDCHAR
STARTCHAR C0075
ENCODING 117
SWIDTH 666 0
DWIDTH 12 0
BBX 12 29 0 -7
BITMAP
0000
0000
0000
0000
0000
0000
0000
0000
0000
0000
0000
0000
0000
79e0
30c0
30c0
30c0
30c0
30c0
30c0
30c0
39c0
1e60
0000
0000
0000
0000
0000
0000
ENDCHAR
STARTCHAR C0076
ENCODING 118
SWIDTH 666 0
DWIDTH 12 0
BBX 12 29 0 -7
BITMAP
0000
0000
0000
0000
0000
0000
0000
0000
0000
0000
0000
0000
0000
f070
6020
3040
3040
1880
1880
0d00
0d00
0600
0600
0000
0000
0000
0000
0000
0000
ENDCHAR
STARTCHAR C0077
ENCODING 119
SWIDTH 666 0
DWIDTH 12 0
BBX 12 29 0 -7
BITMAP
0000
0000
0000
0000
0000
0000
0000
0000
0000
0000
0000
0000
0000
ff70
6620
6620
6620
3740
3b40
3b40
1980
1980
1980
0000
0000
0000
0000
0000
0000
ENDCHAR
STARTCHAR C0078
ENCODING 120
SWIDTH 666 0
DWIDTH 12 0
BBX 12 29 0 -7
BITMAP
0000
0000
0000
0000
0000
0000
0000
0000
0000
0000
0000
0000
0000
f8f0
7040
3880
1d00
0e00
0700
0b80
11c0
20e0
f1f0
0000
0000
0000
0000
0000
0000
ENDCHAR
STARTCHAR C0079
ENCODING 121
SWIDTH 666 0
DWIDTH 12 0
BBX 12 29 0 -7
BITMAP
0000
0000
0000
0000
0000
0000
0000
0000
0000
0000
0000
0000
0000
f0f0
6020
3040
3040
1880
1880
0d00
0d00
0600
0600
0400
0c00
0800
7800
7000
0000
ENDCHAR
STARTCHAR C007a
ENCODING 122
SWIDTH 666 0
DWIDTH 12 0
BBX 12 29 0 -7
BITMAP
0000
0000
0000
0000
0000
0000
0000
0000
0000
0000
0000
0000
0000
7fe0
60e0
41c0
0380
0700
0e00
1c00
3820
7060
7fe0
0000
0000
0000
0000
0000
0000
ENDCHAR
STARTCHAR C007b
ENCODING 123
SWIDTH 666 0
DWIDTH 12 0
BBX 12 29 0 -7
BITMAP
0000
0000
0000
0000
0000
0000
0380
0600
0600
0600
0600
0600
0600
0600
0c00
3800
0c00
0600
0600
0600
0600
0600
0600
0600
0380
0000
0000
0000
0000
ENDCHAR
STARTCHAR C007c
ENCODING 124
SWIDTH 666 0
DWIDTH 12 0
BBX 12 29 0 -7
BITMAP
0000
0000
0000
0000
0000
0000
0000
0000
0600
0600
0600
0600
0600
0600
0600
0600
0600
0600
0600
0600
0600
0600
0600
0600
0600
0600
0600
0000
0000
ENDCHAR
STARTCHAR C007d
ENCODING 125
SWIDTH 666 0
DWIDTH 12 0
BBX 12 29 0 -7
BITMAP
0000
0000
0000
0000
0000
0000
1c00
0600
0600
0600
0600
0600
0600
0600
0300
01c0
0300
0600
0600
0600
0600
0600
0600
0600
1c00
0000
0000
0000
0000
ENDCHAR
STARTCHAR C007e
ENCODING 126
SWIDTH 666 0
DWIDTH 12 0
BBX 12 29 0 -7
BITMAP
0000
0000
0000
0000
0000
0000
0000
0000
0000
0000
0000
0000
0000
0000
1c20
3e60
67c0
4380
0000
0000
0000
0000
0000
0000
0000
0000
0000
0000
0000
ENDCHAR
STARTCHAR C007f
ENCODING 127
SWIDTH 666 0
DWIDTH 12 0
BBX 12 29 0 -7
BITMAP
0000
0000
0000
0000
0000
0000
0000
0000
0000
07f0
0710
0b00
0b00
0b00
1300
1320
1fe0
2320
2300
2300
4300
4310
e3f0
0000
0000
0000
0000
0000
0000
ENDCHAR
STARTCHAR C0080
ENCODING 128
SWIDTH 666 0
DWIDTH 12 0
BBX 12 29 0 -7
BITMAP
0000
0000
0000
0000
0000
0000
0000
0000
0000
0000
0000
0000
0000
3de0
6630
4630
0630
3ff0
6600
c600
c600
e730
7de0
0000
0000
0000
0000
0000
0000
ENDCHAR
STARTCHAR C0081
ENCODING 129
SWIDTH 666 0
DWIDTH 12 0
BBX 12 29 0 -7
BITMAP
0000
0000
0000
0000
0000
0000
0000
0000
0000
ff00
61c0
60c0
6060
6060
6060
6060
f860
6060
6060
6060
6040
6180
fe00
0000
0000
0000
0000
0000
0000
ENDCHAR
STARTCHAR C0082
ENCODING 130
SWIDTH 666 0
DWIDTH 12 0
BBX 12 29 0 -7
BITMAP
0000
0000
0000
0000
0000
0000
0000
0000
1c00
06c0
0300
0d80
00c0
0ec0
33c0
20c0
60c0
60c0
60c0
60c0
70c0
3980
1f80
0000
0000
0000
0000
0000
0000
ENDCHAR
STARTCHAR C0083
ENCODING 131
SWIDTH 666 0
DWIDTH 12 0
BBX 12 29 0 -7
BITMAP
0000
0000
0000
0000
0000
0000
0000
0000
0020
0f60
11c0
21c0
21e0
6360
6360
6660
6660
6c60
6c60
3840
3840
3880
6f00
4000
0000
0000
0000
0000
0000
ENDCHAR
STARTCHAR C0084
ENCODING 132
SWIDTH 666 0
DWIDTH 12 0
BBX 12 29 0 -7
BITMAP
0000
0000
0000
0000
0000
0000
0000
0000
0000
0000
0000
0000
00c0
0f80
11c0
23e0
6360
6660
6660
6c60
7c40
3880
1f00
3000
0000
0000
0000
0000
0000
ENDCHAR
STARTCHAR C0085
ENCODING 133
SWIDTH 666 0
DWIDTH 12 0
BBX 12 29 0 -7
BITMAP
0000
0000
0000
0000
0000
0000
0000
0000
0000
7800
3000
3000
3f80
30c0
3060
3060
3060
3060
30c0
3780
3000
3000
7800
0000
0000
0000
0000
0000
0000
ENDCHAR
STARTCHAR C0086
ENCODING 134
SWIDTH 666 0
DWIDTH 12 0
BBX 12 29 0 -7
BITMAP
0000
0000
0000
0000
0000
0000
0000
0000
2000
6000
e000
6000
6000
6780
6fc0
70e0
6060
6060
6060
6060
7060
78c0
6f80
6000
6000
6000
6000
7000
0000
ENDCHAR
STARTCHAR C0087
ENCODING 135
SWIDTH 666 0
DWIDTH 12 0
BBX 12 29 0 -7
BITMAP
0000
0000
0000
0000
0000
0000
0000
0000
0000
4f80
f0e0
6060
6060
6060
6060
6060
6060
6060
6060
6060
6060
60e0
f0c0
00c0
0180
0b00
0e00
0000
0000
ENDCHAR
STARTCHAR C0088
ENCODING 136
SWIDTH 666 0
DWIDTH 12 0
BBX 12 29 0 -7
BITMAP
0000
0000
0000
0000
0000
0000
0000
0000
0000
0000
0000
0000
0000
2780
79c0
30c0
30c0
30c0
30c0
30c0
30c0
30c0
78c0
0180
0380
1600
1c00
0000
0000
ENDCHAR
STARTCHAR C0089
ENCODING 137
SWIDTH 666 0
DWIDTH 12 0
BBX 12 29 0 -7
BITMAP
0000
0000
0000
0000
0000
0000
0000
0000
0000
1df0
2710
4300
c300
c300
c300
c320
c3e0
c320
c300
c300
e300
7710
3df0
0000
0000
0000
0000
0000
0000
ENDCHAR
STARTCHAR C008a
ENCODING 138
SWIDTH 666 0
DWIDTH 12 0
BBX 12 29 0 -7
BITMAP
0000
0000
0000
0000
0000
0000
0000
0000
0000
0000
0000
0000
0000
3de0
4630
c630
c630
c7f0
c600
c600
c600
e730
7de0
0000
0000
0000
0000
0000
0000
ENDCHAR
STARTCHAR C008b
ENCODING 139
SWIDTH 666 0
DWIDTH 12 0
BBX 12 29 0 -7
BITMAP
0000
0000
0000
0000
0000
0000
0000
0000
0000
0f00
11c0
20c0
6060
0060
0060
0060
7fe0
6060
6060
2040
3040
1880
0f00
0000
0000
0000
0000
0000
0000
ENDCHAR
STARTCHAR C008c
ENCODING 140
SWIDTH 666 0
DWIDTH 12 0
BBX 12 29 0 -7
BITMAP
0000
0000
0000
0000
0000
0000
0000
0000
0000
0000
0000
0000
0000
1f80
31c0
40e0
0060
0060
7fe0
6060
7040
3880
1f00
0000
0000
0000
0000
0000
0000
ENDCHAR
STARTCHAR C008d
ENCODING 141
SWIDTH 666 0
DWIDTH 12 0
BBX 12 29 0 -7
BITMAP
0000
0000
0000
0000
0000
0000
0000
0000
0000
7fe0
40c0
0180
0300
0600
0c00
1f80
00c0
0060
0060
0060
4060
60c0
1f80
0000
0000
0000
0000
0000
0000
ENDCHAR
STARTCHAR C008e
ENCODING 142
SWIDTH 666 0
DWIDTH 12 0
BBX 12 29 0 -7
BITMAP
0000
0000
0000
0000
0000
0000
0000
0000
0000
0000
0000
3fe0
20c0
0300
0c00
1000
3f00
21c0
00e0
0060
0060
0060
0060
20c0
30c0
3980
1f00
0000
0000
ENDCHAR
STARTCHAR C008f
ENCODING 143
SWIDTH 666 0
DWIDTH 12 0
BBX 12 29 0 -7
BITMAP
0000
0000
0000
0000
0000
0000
0000
0000
0000
0f00
1980
30c0
30c0
30c0
3180
3780
3180
30c0
30c0
30c0
30c0
3180
7700
0000
0000
0000
0000
0000
0000
ENDCHAR
STARTCHAR C0090
ENCODING 144
SWIDTH 666 0
DWIDTH 12 0
BBX 12 29 0 -7
BITMAP
0000
0000
0000
1800
0c00
0600
0300
0000
0000
0600
0600
0b00
0b00
0900
1180
1180
1080
3fc0
20c0
2040
4060
4060
e0f0
0000
0000
0000
0000
0000
0000
ENDCHAR
STARTCHAR C0091
ENCODING 145
SWIDTH 666 0
DWIDTH 12 0
BBX 12 29 0 -7
BITMAP
0000
0000
0000
0180
0300
0600
0c00
0000
0000
0600
0600
0b00
0b00
0900
1180
1180
1080
3fc0
20c0
2040
4060
4060
e0f0
0000
0000
0000
0000
0000
0000
ENDCHAR
STARTCHAR C0092
ENCODING 146
SWIDTH 666 0
DWIDTH 12 0
BBX 12 29 0 -7
BITMAP
0000
0000
0000
0200
0700
0d80
18c0
0000
0000
0600
0600
0b00
0b00
0900
1180
1180
1080
3fc0
20c0
2040
4060
4060
e0f0
0000
0000
0000
0000
0000
0000
ENDCHAR
STARTCHAR C0093
ENCODING 147
SWIDTH 666 0
DWIDTH 12 0
BBX 12 29 0 -7
BITMAP
0000
0000
0000
0000
1c40
3fc0
2380
0000
0000
0600
0600
0b00
0b00
0900
1180
1180
1080
3fc0
20c0
2040
4060
4060
e0f0
0000
0000
0000
0000
0000
0000
ENDCHAR
STARTCHAR C0094
ENCODING 148
SWIDTH 666 0
DWIDTH 12 0
BBX 12 29 0 -7
BITMAP
0000
0000
0000
0000
0000
1980
1980
0000
0000
0600
0600
0b00
0b00
0900
1180
1180
1080
3fc0
20c0
2040
4060
4060
e0f0
0000
0000
0000
0000
0000
0000
ENDCHAR
STARTCHAR C0095
ENCODING 149
SWIDTH 666 0
DWIDTH 12 0
BBX 12 29 0 -7
BITMAP
0000
0000
0000
0600
0900
0900
0600
0000
0000
0600
0600
0b00
0b00
0900
1180
1180
1080
3fc0
20c0
2040
4060
4060
e0f0
0000
0000
0000
0000
0000
0000
ENDCHAR
STARTCHAR C0096
ENCODING 150
SWIDTH 666 0
DWIDTH 12 0
BBX 12 29 0 -7
BITMAP
0000
0000
0000
0000
0000
0000
1f80
0000
0000
0600
0600
0b00
0b00
0900
1180
1180
1080
3fc0
20c0
2040
4060
4060
e0f0
0000
0000
0000
0000
0000
0000
ENDCHAR
STARTCHAR C0097
ENCODING 151
SWIDTH 666 0
DWIDTH 12 0
BBX 12 29 0 -7
BITMAP
0000
0000
0000
0000
0000
1980
0f00
0000
0000
0600
0600
0b00
0b00
0900
1180
1180
1080
3fc0
20c0
2040
4060
4060
e0f0
0000
0000
0000
0000
0000
0000
ENDCHAR
STARTCHAR C0098
ENCODING 152
SWIDTH 666 0
DWIDTH 12 0
BBX 12 29 0 -7
BITMAP
0000
0000
0000
0000
0000
0000
0000
0000
0000
0600
0600
0b00
0b00
0900
1180
1180
1080
3fc0
20c0
2040
4060
4060
e0f0
0040
0080
0080
0060
0000
0000
ENDCHAR
STARTCHAR C0099
ENCODING 153
SWIDTH 666 0
DWIDTH 12 0
BBX 12 29 0 -7
BITMAP
0000
0000
0000
0000
0000
0000
0000
0000
0000
0fc0
1060
2020
2000
6000
6000
6000
6000
6000
6000
2000
3020
1840
0f80
0600
0300
0180
0f00
0000
0000
ENDCHAR
STARTCHAR C009a
ENCODING 154
SWIDTH 666 0
DWIDTH 12 0
BBX 12 29 0 -7
BITMAP
0000
0000
0000
0180
0300
0600
0c00
0000
0000
0fc0
1060
2020
2000
6000
6000
6000
6000
6000
6000
2000
3020
1840
0f80
0000
0000
0000
0000
0000
0000
ENDCHAR
STARTCHAR C009b
ENCODING 155
SWIDTH 666 0
DWIDTH 12 0
BBX 12 29 0 -7
BITMAP
0000
0000
0000
0200
0700
0d80
18c0
0000
0000
0fc0
1060
2020
2000
6000
6000
6000
6000
6000
6000
2000
3020
1840
0f80
0000
0000
0000
0000
0000
0000
ENDCHAR
STARTCHAR C009c
ENCODING 156
SWIDTH 666 0
DWIDTH 12 0
BBX 12 29 0 -7
BITMAP
0000
0000
0000
0000
0000
0300
0300
0000
0000
0fc0
1060
2020
2000
6000
6000
6000
6000
6000
6000
2000
3020
1840
0f80
0000
0000
0000
0000
0000
0000
ENDCHAR
STARTCHAR C009d
ENCODING 157
SWIDTH 666 0
DWIDTH 12 0
BBX 12 29 0 -7
BITMAP
0000
0000
0000
18c0
0d80
0700
0200
0000
0000
0fc0
1060
2020
2000
6000
6000
6000
6000
6000
6000
2000
3020
1840
0f80
0000
0000
0000
0000
0000
0000
ENDCHAR
STARTCHAR C009e
ENCODING 158
SWIDTH 666 0
DWIDTH 12 0
BBX 12 29 0 -7
BITMAP
0000
0000
0000
6300
3600
1c00
0800
0000
0000
ff00
61c0
60c0
6060
6060
6060
6060
6060
6060
6060
6060
6040
6180
fe00
0000
0000
0000
0000
0000
0000
ENDCHAR
STARTCHAR C009f
ENCODING 159
SWIDTH 666 0
DWIDTH 12 0
BBX 12 29 0 -7
BITMAP
0000
0000
0000
3000
1800
0c00
0600
0000
0000
7fc0
3040
3040
3000
3000
3080
3f80
3080
3000
3000
3000
3020
3020
7fe0
0000
0000
0000
0000
0000
0000
ENDCHAR
STARTCHAR C00a0
ENCODING 160
SWIDTH 666 0
DWIDTH 12 0
BBX 12 29 0 -7
BITMAP
0000
0000
0000
0180
0300
0600
0c00
0000
0000
7fc0
3040
3040
3000
3000
3080
3f80
3080
3000
3000
3000
3020
3020
7fe0
0000
0000
0000
0000
0000
0000
ENDCHAR
STARTCHAR C00a1
ENCODING 161
SWIDTH 666 0
DWIDTH 12 0
BBX 12 29 0 -7
BITMAP
0000
0000
0000
0200
0700
0d80
18c0
0000
0000
7fc0
3040
3040
3000
3000
3080
3f80
3080
3000
3000
3000
3020
3020
7fe0
0000
0000
0000
0000
0000
0000
ENDCHAR
STARTCHAR C00a2
ENCODING 162
SWIDTH 666 0
DWIDTH 12 0
BBX 12 29 0 -7
BITMAP
0000
0000
0000
0000
0000
1980
1980
0000
0000
7fc0
3040
3040
3000
3000
3080
3f80
3080
3000
3000
3000
3020
3020
7fe0
0000
0000
0000
0000
0000
0000
ENDCHAR
STARTCHAR C00a3
ENCODING 163
SWIDTH 666 0
DWIDTH 12 0
BBX 12 29 0 -7
BITMAP
0000
0000
0000
0000
0000
0000
1f80
0000
0000
7fc0
3040
3040
3000
3000
3080
3f80
3080
3000
3000
3000
3020
3020
7fe0
0000
0000
0000
0000
0000
0000
ENDCHAR
STARTCHAR C00a4
ENCODING 164
SWIDTH 666 0
DWIDTH 12 0
BBX 12 29 0 -7
BITMAP
0000
0000
0000
0000
0000
0600
0600
0000
0000
7fc0
3040
3040
3000
3000
3080
3f80
3080
3000
3000
3000
3020
3020
7fe0
0000
0000
0000
0000
0000
0000
ENDCHAR
STARTCHAR C00a5
ENCODING 165
SWIDTH 666 0
DWIDTH 12 0
BBX 12 29 0 -7
BITMAP
0000
0000
0000
0000
0000
0000
0000
0000
0000
7fc0
3040
3040
3000
3000
3080
3f80
3080
3000
3000
3000
3020
3020
7fe0
0100
0200
0200
0180
0000
0000
ENDCHAR
STARTCHAR C00a6
ENCODING 166
SWIDTH 666 0
DWIDTH 12 0
BBX 12 29 0 -7
BITMAP
0000
0000
0000
18c0
0d80
0700
0200
0000
0000
7fc0
3040
3040
3000
3000
3080
3f80
3080
3000
3000
3000
3020
3020
7fe0
0000
0000
0000
0000
0000
0000
ENDCHAR
STARTCHAR C00a7
ENCODING 167
SWIDTH 666 0
DWIDTH 12 0
BBX 12 29 0 -7
BITMAP
0000
0000
0000
0200
0700
0d80
18c0
0000
0000
0fc0
1060
2020
2000
6000
6000
6000
6000
61f0
6060
2060
3060
1860
0f80
0000
0000
0000
0000
0000
0000
ENDCHAR
STARTCHAR C00a8
ENCODING 168
SWIDTH 666 0
DWIDTH 12 0
BBX 12 29 0 -7
BITMAP
0000
0000
0000
0000
0000
0cc0
0780
0000
0000
0fc0
1060
2020
2000
6000
6000
6000
6000
61f0
6060
2060
3060
1860
0f80
0000
0000
0000
0000
0000
0000
ENDCHAR
STARTCHAR C00a9
ENCODING 169
SWIDTH 666 0
DWIDTH 12 0
BBX 12 29 0 -7
BITMAP
0000
0000
0000
0000
0000
0300
0300
0000
0000
0fc0
1060
2020
2000
6000
6000
6000
6000
61f0
6060
2060
3060
1860
0f80
0000
0000
0000
0000
0000
0000
ENDCHAR
STARTCHAR C00aa
ENCODING 170
SWIDTH 666 0
DWIDTH 12 0
BBX 12 29 0 -7
BITMAP
0000
0000
0000
0000
0000
0000
0000
0000
0000
0fc0
1060
2020
2000
6000
6000
6000
6000
61f0
6060
2060
3060
1860
0f80
0300
0180
00c0
0780
0000
0000
ENDCHAR
STARTCHAR C00ab
ENCODING 171
SWIDTH 666 0
DWIDTH 12 0
BBX 12 29 0 -7
BITMAP
0000
0000
0000
0000
0000
0000
0000
0000
0000
0fc0
1060
2020
2000
6000
6000
6000
61f0
6060
61f0
2060
3060
1860
0f80
0000
0000
0000
0000
0000
0000
ENDCHAR
STARTCHAR C00ac
ENCODING 172
SWIDTH 666 0
DWIDTH 12 0
BBX 12 29 0 -7
BITMAP
0000
0000
0000
18c0
0d80
0700
0200
0000
0000
0fc0
1060
2020
2000
6000
6000
6000
6000
61f0
6060
2060
3060
1860
0f80
0000
0000
0000
0000
0000
0000
ENDCHAR
STARTCHAR C00ad
ENCODING 173
SWIDTH 666 0
DWIDTH 12 0
BBX 12 29 0 -7
BITMAP
0000
0000
0000
0200
0700
0d80
18c0
0000
0000
f0f0
6060
6060
6060
6060
6060
7fe0
6060
6060
6060
6060
6060
6060
f0f0
0000
0000
0000
0000
0000
0000
ENDCHAR
STARTCHAR C00ae
ENCODING 174
SWIDTH 666 0
DWIDTH 12 0
BBX 12 29 0 -7
BITMAP
0000
0000
0000
0000
0000
0000
0000
0000
0000
f0f0
6060
6060
fff0
6060
6060
7fe0
6060
6060
6060
6060
6060
6060
f0f0
0000
0000
0000
0000
0000
0000
ENDCHAR
STARTCHAR C00af
ENCODING 175
SWIDTH 666 0
DWIDTH 12 0
BBX 12 29 0 -7
BITMAP
0000
0000
0000
1800
0c00
0600
0300
0000
0000
1f80
0600
0600
0600
0600
0600
0600
0600
0600
0600
0600
0600
0600
1f80
0000
0000
0000
0000
0000
0000
ENDCHAR
STARTCHAR C00b0
ENCODING 176
SWIDTH 666 0
DWIDTH 12 0
BBX 12 29 0 -7
BITMAP
0000
0000
0000
0180
0300
0600
0c00
0000
0000
1f80
0600
0600
0600
0600
0600
0600
0600
0600
0600
0600
0600
0600
1f80
0000
0000
0000
0000
0000
0000
ENDCHAR
STARTCHAR C00b1
ENCODING 177
SWIDTH 666 0
DWIDTH 12 0
BBX 12 29 0 -7
BITMAP
0000
0000
0000
0200
0700
0d80
18c0
0000
0000
1f80
0600
0600
0600
0600
0600
0600
0600
0600
0600
0600
0600
0600
1f80
0000
0000
0000
0000
0000
0000
ENDCHAR
STARTCHAR C00b2
ENCODING 178
SWIDTH 666 0
DWIDTH 12 0
BBX 12 29 0 -7
BITMAP
0000
0000
0000
0000
0000
1980
1980
0000
0000
1f80
0600
0600
0600
0600
0600
0600
0600
0600
0600
0600
0600
0600
1f80
0000
0000
0000
0000
0000
0000
ENDCHAR
STARTCHAR C00b3
ENCODING 179
SWIDTH 666 0
DWIDTH 12 0
BBX 12 29 0 -7
BITMAP
0000
0000
0000
0000
0000
0000
1f80
0000
0000
1f80
0600
0600
0600
0600
0600
0600
0600
0600
0600
0600
0600
0600
1f80
0000
0000
0000
0000
0000
0000
ENDCHAR
STARTCHAR C00b4
ENCODING 180
SWIDTH 666 0
DWIDTH 12 0
BBX 12 29 0 -7
BITMAP
0000
0000
0000
0000
0000
0000
0000
0000
0000
1f80
0600
0600
0600
0600
0600
0600
0600
0600
0600
0600
0600
0600
1f80
0400
0800
0800
0600
0000
0000
ENDCHAR
STARTCHAR C00b5
ENCODING 181
SWIDTH 666 0
DWIDTH 12 0
BBX 12 29 0 -7
BITMAP
0000
0000
0000
0000
0000
0600
0600
0000
0000
1f80
0600
0600
0600
0600
0600
0600
0600
0600
0600
0600
0600
0600
1f80
0000
0000
0000
0000
0000
0000
ENDCHAR
STARTCHAR C00b6
ENCODING 182
SWIDTH 666 0
DWIDTH 12 0
BBX 12 29 0 -7
BITMAP
0000
0000
0000
0400
0e00
1b00
3180
0000
0000
1f80
0600
0600
0600
0600
0600
0600
0600
0600
0600
0600
0600
0600
0600
0600
0600
0400
3800
3000
0000
ENDCHAR
STARTCHAR C00b7
ENCODING 183
SWIDTH 666 0
DWIDTH 12 0
BBX 12 29 0 -7
BITMAP
0000
0000
0000
0000
0000
0000
0000
0000
0000
f0e0
6180
6300
6600
6c00
7800
7800
7c00
6e00
6700
6380
61c0
60e0
f070
0600
0300
0180
0f00
0000
0000
ENDCHAR
STARTCHAR C00b8
ENCODING 184
SWIDTH 666 0
DWIDTH 12 0
BBX 12 29 0 -7
BITMAP
0000
0000
0000
18c0
0d80
0700
0200
0000
0000
f0e0
6180
6300
6600
6c00
7800
7800
7c00
6e00
6700
6380
61c0
60e0
f070
0000
0000
0000
0000
0000
0000
ENDCHAR
STARTCHAR C00b9
ENCODING 185
SWIDTH 666 0
DWIDTH 12 0
BBX 12 29 0 -7
BITMAP
0000
0000
0000
0c00
1800
3000
6000
0000
0000
7800
3000
3000
3000
3000
3000
3000
3000
3000
3000
3000
3020
3020
7fe0
0000
0000
0000
0000
0000
0000
ENDCHAR
STARTCHAR C00ba
ENCODING 186
SWIDTH 666 0
DWIDTH 12 0
BBX 12 29 0 -7
BITMAP
0000
0000
0000
0000
0000
0000
0000
0000
0000
7800
3000
3000
3000
3000
3000
3000
3000
3000
3000
3000
3020
3020
7fe0
0600
0300
0180
0f00
0000
0000
ENDCHAR
STARTCHAR C00bb
ENCODING 187
SWIDTH 666 0
DWIDTH 12 0
BBX 12 29 0 -7
BITMAP
0000
0000
0000
0000
0000
0000
0000
0000
0180
7880
3180
3100
3000
3000
3000
3000
3000
3000
3000
3000
3020
3020
7fe0
0000
0000
0000
0000
0000
0000
ENDCHAR
STARTCHAR C00bc
ENCODING 188
SWIDTH 666 0
DWIDTH 12 0
BBX 12 29 0 -7
BITMAP
0000
0000
0000
0000
0000
0000
0000
0000
0000
7800
3000
3000
3000
3000
3000
3300
3300
3000
3000
3000
3020
3020
7fe0
0000
0000
0000
0000
0000
0000
ENDCHAR
STARTCHAR C00bd
ENCODING 189
SWIDTH 666 0
DWIDTH 12 0
BBX 12 29 0 -7
BITMAP
0000
0000
0000
0000
0000
0000
0000
0000
0000
7800
3000
3000
3000
3400
3c00
3800
3000
7000
f000
b000
3020
3020
7fe0
0000
0000
0000
0000
0000
0000
ENDCHAR
STARTCHAR C00be
ENCODING 190
SWIDTH 666 0
DWIDTH 12 0
BBX 12 29 0 -7
BITMAP
0000
0000
0000
0000
1c40
3fc0
2380
0000
0000
c070
6020
7020
7820
5820
4c20
4620
4720
4320
41a0
40e0
40e0
4060
e030
0000
0000
0000
0000
0000
0000
ENDCHAR
STARTCHAR C00bf
ENCODING 191
SWIDTH 666 0
DWIDTH 12 0
BBX 12 29 0 -7
BITMAP
0000
0000
0000
0300
0600
0c00
1800
0000
0000
c070
6020
7020
7820
5820
4c20
4620
4720
4320
41a0
40e0
40e0
4060
e030
0000
0000
0000
0000
0000
0000
ENDCHAR
STARTCHAR C00c0
ENCODING 192
SWIDTH 666 0
DWIDTH 12 0
BBX 12 29 0 -7
BITMAP
0000
0000
0000
0000
0000
0000
0000
0000
0000
c070
6020
7020
7820
5820
4c20
4620
4720
4320
41a0
40e0
40e0
4060
e030
0600
0300
0180
0f00
0000
0000
ENDCHAR
STARTCHAR C00c1
ENCODING 193
SWIDTH 666 0
DWIDTH 12 0
BBX 12 29 0 -7
BITMAP
0000
0000
0000
3180
1b00
0e00
0400
0000
0000
c070
6020
7020
7820
5820
4c20
4620
4720
4320
41a0
40e0
40e0
4060
e030
0000
0000
0000
0000
0000
0000
ENDCHAR
STARTCHAR C00c2
ENCODING 194
SWIDTH 666 0
DWIDTH 12 0
BBX 12 29 0 -7
BITMAP
0000
0000
0000
1800
0c00
0600
0300
0000
0000
0f00
11c0
20c0
2060
6060
6060
6060
6060
6060
6060
2040
3040
1880
0f00
0000
0000
0000
0000
0000
0000
ENDCHAR
STARTCHAR C00c3
ENCODING 195
SWIDTH 666 0
DWIDTH 12 0
BBX 12 29 0 -7
BITMAP
0000
0000
0000
0180
0300
0600
0c00
0000
0000
0f00
11c0
20c0
2060
6060
6060
6060
6060
6060
6060
2040
3040
1880
0f00
0000
0000
0000
0000
0000
0000
ENDCHAR
STARTCHAR C00c4
ENCODING 196
SWIDTH 666 0
DWIDTH 12 0
BBX 12 29 0 -7
BITMAP
0000
0000
0000
0200
0700
0d80
18c0
0000
0000
0f00
11c0
20c0
2060
6060
6060
6060
6060
6060
6060
2040
3040
1880
0f00
0000
0000
0000
0000
0000
0000
ENDCHAR
STARTCHAR C00c5
ENCODING 197
SWIDTH 666 0
DWIDTH 12 0
BBX 12 29 0 -7
BITMAP
0000
0000
0000
0000
1c40
3fc0
2380
0000
0000
0f00
11c0
20c0
2060
6060
6060
6060
6060
6060
6060
2040
3040
1880
0f00
0000
0000
0000
0000
0000
0000
ENDCHAR
STARTCHAR C00c6
ENCODING 198
SWIDTH 666 0
DWIDTH 12 0
BBX 12 29 0 -7
BITMAP
0000
0000
0000
0000
0000
1980
1980
0000
0000
0f00
11c0
20c0
2060
6060
6060
6060
6060
6060
6060
2040
3040
1880
0f00
0000
0000
0000
0000
0000
0000
ENDCHAR
STARTCHAR C00c7
ENCODING 199
SWIDTH 666 0
DWIDTH 12 0
BBX 12 29 0 -7
BITMAP
0000
0000
0000
0000
0000
0000
1f80
0000
0000
0f00
11c0
20c0
2060
6060
6060
6060
6060
6060
6060
2040
3040
1880
0f00
0000
0000
0000
0000
0000
0000
ENDCHAR
STARTCHAR C00c8
ENCODING 200
SWIDTH 666 0
DWIDTH 12 0
BBX 12 29 0 -7
BITMAP
0000
0000
0000
0000
0cc0
1980
3300
0000
0000
0f00
11c0
20c0
2060
6060
6060
6060
6060
6060
6060
2040
3040
1880
0f00
0000
0000
0000
0000
0000
0000
ENDCHAR
STARTCHAR C00c9
ENCODING 201
SWIDTH 666 0
DWIDTH 12 0
BBX 12 29 0 -7
BITMAP
0000
0000
0000
0300
0600
0c00
1800
0000
0000
ff00
6180
60c0
60c0
60c0
6080
7f00
7c00
6e00
6700
6380
61c0
60e0
f070
0000
0000
0000
0000
0000
0000
ENDCHAR
STARTCHAR C00ca
ENCODING 202
SWIDTH 666 0
DWIDTH 12 0
BBX 12 29 0 -7
BITMAP
0000
0000
0000
3180
1b00
0e00
0400
0000
0000
ff00
6180
60c0
60c0
60c0
6080
7f00
7c00
6e00
6700
6380
61c0
60e0
f070
0000
0000
0000
0000
0000
0000
ENDCHAR
STARTCHAR C00cb
ENCODING 203
SWIDTH 666 0
DWIDTH 12 0
BBX 12 29 0 -7
BITMAP
0000
0000
0000
0180
0300
0600
0c00
0000
0000
1fe0
3060
6020
6020
7000
3c00
1e00
0780
01c0
00e0
4060
4060
60c0
7f80
0000
0000
0000
0000
0000
0000
ENDCHAR
STARTCHAR C00cc
ENCODING 204
SWIDTH 666 0
DWIDTH 12 0
BBX 12 29 0 -7
BITMAP
0000
0000
0000
0200
0700
0d80
18c0
0000
0000
1fe0
3060
6020
6020
7000
3c00
1e00
0780
01c0
00e0
4060
4060
60c0
7f80
0000
0000
0000
0000
0000
0000
ENDCHAR
STARTCHAR C00cd
ENCODING 205
SWIDTH 666 0
DWIDTH 12 0
BBX 12 29 0 -7
BITMAP
0000
0000
0000
0000
0000
0000
0000
0000
0000
1fe0
3060
6020
6020
7000
3c00
1e00
0780
01c0
00e0
4060
4060
60c0
7f80
0600
0300
0180
0f00
0000
0000
ENDCHAR
STARTCHAR C00ce
ENCODING 206
SWIDTH 666 0
DWIDTH 12 0
BBX 12 29 0 -7
BITMAP
0000
0000
0000
18c0
0d80
0700
0200
0000
0000
1fe0
3060
6020
6020
7000
3c00
1e00
0780
01c0
00e0
4060
4060
60c0
7f80
0000
0000
0000
0000
0000
0000
ENDCHAR
STARTCHAR C00cf
ENCODING 207
SWIDTH 666 0
DWIDTH 12 0
BBX 12 29 0 -7
BITMAP
0000
0000
0000
0000
0000
0000
0000
0000
0000
1fe0
3060
6020
6020
7000
3c00
1e00
0780
01c0
00e0
4060
4060
60c0
7f80
0000
0700
0300
0600
0000
0000
ENDCHAR
STARTCHAR C00d0
ENCODING 208
SWIDTH 666 0
DWIDTH 12 0
BBX 12 29 0 -7
BITMAP
0000
0000
0000
18c0
0d80
0700
0200
0000
0000
7fe0
4620
0600
0600
0600
0600
0600
0600
0600
0600
0600
0600
0600
1f80
0000
0000
0000
0000
0000
0000
ENDCHAR
STARTCHAR C00d1
ENCODING 209
SWIDTH 666 0
DWIDTH 12 0
BBX 12 29 0 -7
BITMAP
0000
0000
0000
0000
0000
0000
0000
0000
0000
7fe0
4620
0600
0600
0600
0600
3fc0
0600
0600
0600
0600
0600
0600
1f80
0000
0000
0000
0000
0000
0000
ENDCHAR
STARTCHAR C00d2
ENCODING 210
SWIDTH 666 0
DWIDTH 12 0
BBX 12 29 0 -7
BITMAP
0000
0000
0000
0000
0000
0000
0000
0000
0000
7fe0
4620
0600
0600
0600
0600
0600
0600
0600
0600
0600
0600
0600
1f80
0000
0700
0300
0600
0000
0000
ENDCHAR
STARTCHAR C00d3
ENCODING 211
SWIDTH 666 0
DWIDTH 12 0
BBX 12 29 0 -7
BITMAP
0000
0000
0000
0c00
0600
0300
0180
0000
0000
f070
6020
6020
6020
6020
6020
6020
6020
6020
6020
6020
7040
3fc0
1f80
0000
0000
0000
0000
0000
0000
ENDCHAR
STARTCHAR C00d4
ENCODING 212
SWIDTH 666 0
DWIDTH 12 0
BBX 12 29 0 -7
BITMAP
0000
0000
0000
0180
0300
0600
0c00
0000
0000
f070
6020
6020
6020
6020
6020
6020
6020
6020
6020
6020
7040
3fc0
1f80
0000
0000
0000
0000
0000
0000
ENDCHAR
STARTCHAR C00d5
ENCODING 213
SWIDTH 666 0
DWIDTH 12 0
BBX 12 29 0 -7
BITMAP
0000
0000
0000
0200
0700
0d80
18c0
0000
0000
f070
6020
6020
6020
6020
6020
6020
6020
6020
6020
6020
7040
3fc0
1f80
0000
0000
0000
0000
0000
0000
ENDCHAR
STARTCHAR C00d6
ENCODING 214
SWIDTH 666 0
DWIDTH 12 0
BBX 12 29 0 -7
BITMAP
0000
0000
0000
0000
0000
1980
1980
0000
0000
f070
6020
6020
6020
6020
6020
6020
6020
6020
6020
6020
7040
3fc0
1f80
0000
0000
0000
0000
0000
0000
ENDCHAR
STARTCHAR C00d7
ENCODING 215
SWIDTH 666 0
DWIDTH 12 0
BBX 12 29 0 -7
BITMAP
0000
0000
0000
0000
0000
0000
1f80
0000
0000
f070
6020
6020
6020
6020
6020
6020
6020
6020
6020
6020
7040
3fc0
1f80
0000
0000
0000
0000
0000
0000
ENDCHAR
STARTCHAR C00d8
ENCODING 216
SWIDTH 666 0
DWIDTH 12 0
BBX 12 29 0 -7
BITMAP
0000
0000
0000
0000
0000
1980
0f00
0000
0000
f070
6020
6020
6020
6020
6020
6020
6020
6020
6020
6020
7040
3fc0
1f80
0000
0000
0000
0000
0000
0000
ENDCHAR
STARTCHAR C00d9
ENCODING 217
SWIDTH 666 0
DWIDTH 12 0
BBX 12 29 0 -7
BITMAP
0000
0000
0000
0600
0900
0900
0600
0000
0000
f070
6020
6020
6020
6020
6020
6020
6020
6020
6020
6020
7040
3fc0
1f80
0000
0000
0000
0000
0000
0000
ENDCHAR
STARTCHAR C00da
ENCODING 218
SWIDTH 666 0
DWIDTH 12 0
BBX 12 29 0 -7
BITMAP
0000
0000
0000
0000
0660
0cc0
1980
0000
0000
f070
6020
6020
6020
6020
6020
6020
6020
6020
6020
6020
7040
3fc0
1f80
0000
0000
0000
0000
0000
0000
ENDCHAR
STARTCHAR C00db
ENCODING 219
SWIDTH 666 0
DWIDTH 12 0
BBX 12 29 0 -7
BITMAP
0000
0000
0000
0000
0000
0000
0000
0000
0000
f070
6020
6020
6020
6020
6020
6020
6020
6020
6020
6020
7040
3fc0
1f80
0400
0800
0800
0600
0000
0000
ENDCHAR
STARTCHAR C00dc
ENCODING 220
SWIDTH 666 0
DWIDTH 12 0
BBX 12 29 0 -7
BITMAP
0000
0000
0000
0400
0e00
1b00
3180
0000
0000
fef0
6620
6620
6620
7620
7740
3340
3740
3bc0
3b80
1980
1980
1980
1980
0000
0000
0000
0000
0000
0000
ENDCHAR
STARTCHAR C00dd
ENCODING 221
SWIDTH 666 0
DWIDTH 12 0
BBX 12 29 0 -7
BITMAP
0000
0000
0000
1800
0c00
0600
0300
0000
0000
fef0
6620
6620
6620
7620
7740
3340
3740
3bc0
3b80
1980
1980
1980
1980
0000
0000
0000
0000
0000
0000
ENDCHAR
STARTCHAR C00de
ENCODING 222
SWIDTH 666 0
DWIDTH 12 0
BBX 12 29 0 -7
BITMAP
0000
0000
0000
0180
0300
0600
0c00
0000
0000
fef0
6620
6620
6620
7620
7740
3340
3740
3bc0
3b80
1980
1980
1980
1980
0000
0000
0000
0000
0000
0000
ENDCHAR
STARTCHAR C00df
ENCODING 223
SWIDTH 666 0
DWIDTH 12 0
BBX 12 29 0 -7
BITMAP
0000
0000
0000
0000
0000
1980
1980
0000
0000
fef0
6620
6620
6620
7620
7740
3340
3740
3bc0
3b80
1980
1980
1980
1980
0000
0000
0000
0000
0000
0000
ENDCHAR
STARTCHAR C00e0
ENCODING 224
SWIDTH 666 0
DWIDTH 12 0
BBX 12 29 0 -7
BITMAP
0000
0000
0000
0180
0300
0600
0c00
0000
0000
f070
6020
3040
1880
1880
0d00
0600
0600
0600
0600
0600
0600
0600
0f00
0000
0000
0000
0000
0000
0000
ENDCHAR
STARTCHAR C00e1
ENCODING 225
SWIDTH 666 0
DWIDTH 12 0
BBX 12 29 0 -7
BITMAP
0000
0000
0000
0200
0700
0d80
18c0
0000
0000
f070
6020
3040
1880
1880
0d00
0600
0600
0600
0600
0600
0600
0600
0f00
0000
0000
0000
0000
0000
0000
ENDCHAR
STARTCHAR C00e2
ENCODING 226
SWIDTH 666 0
DWIDTH 12 0
BBX 12 29 0 -7
BITMAP
0000
0000
0000
0000
0000
1980
1980
0000
0000
f070
6020
3040
1880
1880
0d00
0600
0600
0600
0600
0600
0600
0600
0f00
0000
0000
0000
0000
0000
0000
ENDCHAR
STARTCHAR C00e3
ENCODING 227
SWIDTH 666 0
DWIDTH 12 0
BBX 12 29 0 -7
BITMAP
0000
0000
0000
1800
0c00
0600
0300
0000
0000
f070
6020
3040
1880
1880
0d00
0600
0600
0600
0600
0600
0600
0600
0f00
0000
0000
0000
0000
0000
0000
ENDCHAR
STARTCHAR C00e4
ENCODING 228
SWIDTH 666 0
DWIDTH 12 0
BBX 12 29 0 -7
BITMAP
0000
0000
0000
0180
0300
0600
0c00
0000
0000
3fe0
20c0
00c0
0180
0180
0300
0300
0600
0600
0c00
0c00
1800
1820
3fe0
0000
0000
0000
0000
0000
0000
ENDCHAR
STARTCHAR C00e5
ENCODING 229
SWIDTH 666 0
DWIDTH 12 0
BBX 12 29 0 -7
BITMAP
0000
0000
0000
0000
0000
0600
0600
0000
0000
3fe0
20c0
00c0
0180
0180
0300
0300
0600
0600
0c00
0c00
1800
1820
3fe0
0000
0000
0000
0000
0000
0000
ENDCHAR
STARTCHAR C00e6
ENCODING 230
SWIDTH 666 0
DWIDTH 12 0
BBX 12 29 0 -7
BITMAP
0000
0000
0000
18c0
0d80
0700
0200
0000
0000
3fe0
20c0
00c0
0180
0180
0300
0300
0600
0600
0c00
0c00
1800
1820
3fe0
0000
0000
0000
0000
0000
0000
ENDCHAR
STARTCHAR C00e7
ENCODING 231
SWIDTH 666 0
DWIDTH 12 0
BBX 12 29 0 -7
BITMAP
0000
0000
0000
3180
1b00
0e00
0400
0000
0000
7fe0
40c0
0180
0300
0600
0c00
1f80
00c0
0060
0060
0060
4060
60c0
1f80
0000
0000
0000
0000
0000
0000
ENDCHAR
STARTCHAR C00e8
ENCODING 232
SWIDTH 666 0
DWIDTH 12 0
BBX 12 29 0 -7
BITMAP
0000
0000
0000
3180
1b00
0e00
0400
0000
0000
0600
0600
0b00
0b00
0900
1180
1180
1080
3fc0
20c0
2040
4060
4060
e0f0
0000
0000
0000
0000
0000
0000
ENDCHAR
STARTCHAR C00e9
ENCODING 233
SWIDTH 666 0
DWIDTH 12 0
BBX 12 29 0 -7
BITMAP
0000
0000
0000
0000
0000
0000
0000
18c0
0d80
0700
0200
0000
0000
0f80
18c0
10c0
03c0
1cc0
30c0
30c0
30c0
39c0
1ee0
0000
0000
0000
0000
0000
0000
ENDCHAR
STARTCHAR C00ea
ENCODING 234
SWIDTH 666 0
DWIDTH 12 0
BBX 12 29 0 -7
BITMAP
0000
0000
0000
3180
1b00
0e00
0400
0000
0000
1f80
0600
0600
0600
0600
0600
0600
0600
0600
0600
0600
0600
0600
1f80
0000
0000
0000
0000
0000
0000
ENDCHAR
STARTCHAR C00eb
ENCODING 235
SWIDTH 666 0
DWIDTH 12 0
BBX 12 29 0 -7
BITMAP
0000
0000
0000
0000
0000
0000
0000
3180
1b00
0e00
0400
0000
0000
1e00
0600
0600
0600
0600
0600
0600
0600
0600
1f80
0000
0000
0000
0000
0000
0000
ENDCHAR
STARTCHAR C00ec
ENCODING 236
SWIDTH 666 0
DWIDTH 12 0
BBX 12 29 0 -7
BITMAP
0000
0000
0000
3180
1b00
0e00
0400
0000
0000
0f00
11c0
20c0
2060
6060
6060
6060
6060
6060
6060
2040
3040
1880
0f00
0000
0000
0000
0000
0000
0000
ENDCHAR
STARTCHAR C00ed
ENCODING 237
SWIDTH 666 0
DWIDTH 12 0
BBX 12 29 0 -7
BITMAP
0000
0000
0000
0000
0000
0000
0000
3180
1b00
0e00
0400
0000
0000
0f80
11c0
20e0
6060
6060
6060
6060
7040
3880
1f00
0000
0000
0000
0000
0000
0000
ENDCHAR
STARTCHAR C00ee
ENCODING 238
SWIDTH 666 0
DWIDTH 12 0
BBX 12 29 0 -7
BITMAP
0000
0000
0000
18c0
0d80
0700
0200
0000
0000
f070
6020
6020
6020
6020
6020
6020
6020
6020
6020
6020
7040
3fc0
1f80
0000
0000
0000
0000
0000
0000
ENDCHAR
STARTCHAR C00ef
ENCODING 239
SWIDTH 666 0
DWIDTH 12 0
BBX 12 29 0 -7
BITMAP
0000
0000
0000
0000
0000
0000
0000
3180
1b00
0e00
0400
0000
0000
79e0
30c0
30c0
30c0
30c0
30c0
30c0
30c0
39c0
1e60
0000
0000
0000
0000
0000
0000
ENDCHAR
STARTCHAR C00f0
ENCODING 240
SWIDTH 666 0
DWIDTH 12 0
BBX 12 29 0 -7
BITMAP
0000
0000
0000
0000
0000
0000
0000
1800
0c00
0600
0300
0000
0000
0f80
18c0
10c0
03c0
1cc0
30c0
30c0
30c0
39c0
1ee0
0000
0000
0000
0000
0000
0000
ENDCHAR
STARTCHAR C00f1
ENCODING 241
SWIDTH 666 0
DWIDTH 12 0
BBX 12 29 0 -7
BITMAP
0000
0000
0000
0000
0000
0000
0000
0180
0300
0600
0c00
0000
0000
0f80
18c0
10c0
03c0
1cc0
30c0
30c0
30c0
39c0
1ee0
0000
0000
0000
0000
0000
0000
ENDCHAR
STARTCHAR C00f2
ENCODING 242
SWIDTH 666 0
DWIDTH 12 0
BBX 12 29 0 -7
BITMAP
0000
0000
0000
0000
0000
0000
0000
0200
0700
0d80
18c0
0000
0000
0f80
18c0
10c0
03c0
1cc0
30c0
30c0
30c0
39c0
1ee0
0000
0000
0000
0000
0000
0000
ENDCHAR
STARTCHAR C00f3
ENCODING 243
SWIDTH 666 0
DWIDTH 12 0
BBX 12 29 0 -7
BITMAP
0000
0000
0000
0000
0000
0000
0000
0000
1c40
3fc0
2380
0000
0000
0f80
18c0
10c0
03c0
1cc0
30c0
30c0
30c0
39c0
1ee0
0000
0000
0000
0000
0000
0000
ENDCHAR
STARTCHAR C00f4
ENCODING 244
SWIDTH 666 0
DWIDTH 12 0
BBX 12 29 0 -7
BITMAP
0000
0000
0000
0000
0000
0000
0000
0000
0000
1980
1980
0000
0000
0f80
18c0
10c0
03c0
1cc0
30c0
30c0
30c0
39c0
1ee0
0000
0000
0000
0000
0000
0000
ENDCHAR
STARTCHAR C00f5
ENCODING 245
SWIDTH 666 0
DWIDTH 12 0
BBX 12 29 0 -7
BITMAP
0000
0000
0000
0000
0000
0000
0000
0600
0900
0900
0600
0000
0000
0f80
18c0
10c0
03c0
1cc0
30c0
30c0
30c0
39c0
1ee0
0000
0000
0000
0000
0000
0000
ENDCHAR
STARTCHAR C00f6
ENCODING 246
SWIDTH 666 0
DWIDTH 12 0
BBX 12 29 0 -7
BITMAP
0000
0000
0000
0000
0000
0000
0000
0000
0000
1f80
0000
0000
0000
0f80
18c0
10c0
03c0
1cc0
30c0
30c0
30c0
39c0
1ee0
0000
0000
0000
0000
0000
0000
ENDCHAR
STARTCHAR C00f7
ENCODING 247
SWIDTH 666 0
DWIDTH 12 0
BBX 12 29 0 -7
BITMAP
0000
0000
0000
0000
0000
0000
0000
0000
0000
1980
0f00
0000
0000
0f80
18c0
10c0
03c0
1cc0
30c0
30c0
30c0
39c0
1ee0
0000
0000
0000
0000
0000
0000
ENDCHAR
STARTCHAR C00f8
ENCODING 248
SWIDTH 666 0
DWIDTH 12 0
BBX 12 29 0 -7
BITMAP
0000
0000
0000
0000
0000
0000
0000
0000
0000
0000
0000
0000
0000
0f80
18c0
10c0
03c0
1cc0
30c0
30c0
30c0
39c0
1ee0
0100
0200
0200
0180
0000
0000
ENDCHAR
STARTCHAR C00f9
ENCODING 249
SWIDTH 666 0
DWIDTH 12 0
BBX 12 29 0 -7
BITMAP
0000
0000
0000
0000
0000
0000
0000
0000
0000
0000
0000
0000
0000
1f80
31c0
20c0
6000
6000
6000
6000
7040
30c0
1f80
0600
0300
0180
0f00
0000
0000
ENDCHAR
STARTCHAR C00fa
ENCODING 250
SWIDTH 666 0
DWIDTH 12 0
BBX 12 29 0 -7
BITMAP
0000
0000
0000
0000
0000
0000
0000
0300
0600
0c00
1800
0000
0000
1f80
31c0
20c0
6000
6000
6000
6000
7040
30c0
1f80
0000
0000
0000
0000
0000
0000
ENDCHAR
STARTCHAR C00fb
ENCODING 251
SWIDTH 666 0
DWIDTH 12 0
BBX 12 29 0 -7
BITMAP
0000
0000
0000
0000
0000
0000
0000
0400
0e00
1b00
3180
0000
0000
1f80
31c0
20c0
6000
6000
6000
6000
7040
30c0
1f80
0000
0000
0000
0000
0000
0000
ENDCHAR
STARTCHAR C00fc
ENCODING 252
SWIDTH 666 0
DWIDTH 12 0
BBX 12 29 0 -7
BITMAP
0000
0000
0000
0000
0000
0000
0000
0000
0000
0600
0600
0000
0000
1f80
31c0
20c0
6000
6000
6000
6000
7040
30c0
1f80
0000
0000
0000
0000
0000
0000
ENDCHAR
STARTCHAR C00fd
ENCODING 253
SWIDTH 666 0
DWIDTH 12 0
BBX 12 29 0 -7
BITMAP
0000
0000
0000
0000
0000
0000
0000
3180
1b00
0e00
0400
0000
0000
1f80
31c0
20c0
6000
6000
6000
6000
7040
30c0
1f80
0000
0000
0000
0000
0000
0000
ENDCHAR
STARTCHAR C00fe
ENCODING 254
SWIDTH 666 0
DWIDTH 12 0
BBX 12 29 0 -7
BITMAP
0000
0000
0000
0000
0000
0000
0000
0030
0390
01b0
01a0
0180
0180
1d80
6780
4180
c180
c180
c180
c180
e180
7380
3dc0
0000
0000
0000
0000
0000
0000
ENDCHAR
STARTCHAR C00ff
ENCODING 255
SWIDTH 666 0
DWIDTH 12 0
BBX 12 29 0 -7
BITMAP
0000
0000
0000
0000
0000
0000
0000
0000
01c0
00c0
07e0
00c0
00c0
0ec0
33c0
20c0
60c0
60c0
60c0
60c0
70c0
39c0
1ee0
0000
0000
0000
0000
0000
0000
ENDCHAR
STARTCHAR C0100
ENCODING 256
SWIDTH 666 0
DWIDTH 12 0
BBX 12 29 0 -7
BITMAP
0000
0000
0000
0000
0000
0000
0000
1800
0c00
0600
0300
0000
0000
0f00
30c0
6060
6060
7fe0
6000
6000
3000
1860
0f80
0000
0000
0000
0000
0000
0000
ENDCHAR
STARTCHAR C0101
ENCODING 257
SWIDTH 666 0
DWIDTH 12 0
BBX 12 29 0 -7
BITMAP
0000
0000
0000
0000
0000
0000
0000
0180
0300
0600
0c00
0000
0000
0f00
30c0
6060
6060
7fe0
6000
6000
3000
1860
0f80
0000
0000
0000
0000
0000
0000
ENDCHAR
STARTCHAR C0102
ENCODING 258
SWIDTH 666 0
DWIDTH 12 0
BBX 12 29 0 -7
BITMAP
0000
0000
0000
0000
0000
0000
0000
0200
0700
0d80
18c0
0000
0000
0f00
30c0
6060
6060
7fe0
6000
6000
3000
1860
0f80
0000
0000
0000
0000
0000
0000
ENDCHAR
STARTCHAR C0103
ENCODING 259
SWIDTH 666 0
DWIDTH 12 0
BBX 12 29 0 -7
BITMAP
0000
0000
0000
0000
0000
0000
0000
0000
0000
1980
1980
0000
0000
0f00
30c0
6060
6060
7fe0
6000
6000
3000
1860
0f80
0000
0000
0000
0000
0000
0000
ENDCHAR
STARTCHAR C0104
ENCODING 260
SWIDTH 666 0
DWIDTH 12 0
BBX 12 29 0 -7
BITMAP
0000
0000
0000
0000
0000
0000
0000
0000
0000
0000
1f80
0000
0000
0f00
30c0
6060
6060
7fe0
6000
6000
3000
1860
0f80
0000
0000
0000
0000
0000
0000
ENDCHAR
STARTCHAR C0105
ENCODING 261
SWIDTH 666 0
DWIDTH 12 0
BBX 12 29 0 -7
BITMAP
0000
0000
0000
0000
0000
0000
0000
0000
0000
0600
0600
0000
0000
0f00
30c0
6060
6060
7fe0
6000
6000
3000
1860
0f80
0000
0000
0000
0000
0000
0000
ENDCHAR
STARTCHAR C0106
ENCODING 262
SWIDTH 666 0
DWIDTH 12 0
BBX 12 29 0 -7
BITMAP
0000
0000
0000
0000
0000
0000
0000
0000
0000
0000
0000
0000
0000
0f00
30c0
6060
6060
7fe0
6000
6000
3000
1860
0f80
0200
0400
0400
0300
0000
0000
ENDCHAR
STARTCHAR C0107
ENCODING 263
SWIDTH 666 0
DWIDTH 12 0
BBX 12 29 0 -7
BITMAP
0000
0000
0000
0000
0000
0000
0000
18c0
0d80
0700
0200
0000
0000
0f00
30c0
6060
6060
7fe0
6000
6000
3000
1860
0f80
0000
0000
0000
0000
0000
0000
ENDCHAR
STARTCHAR C0108
ENCODING 264
SWIDTH 666 0
DWIDTH 12 0
BBX 12 29 0 -7
BITMAP
0000
0000
0000
0000
0000
0000
0000
0400
0e00
1b00
3180
0000
0000
1f20
31e0
60c0
60c0
60c0
3180
3f00
6000
7fc0
3fe0
2060
4020
4020
7fc0
3f80
0000
ENDCHAR
STARTCHAR C0109
ENCODING 265
SWIDTH 666 0
DWIDTH 12 0
BBX 12 29 0 -7
BITMAP
0000
0000
0000
0000
0000
0000
0000
0000
0000
1980
0f00
0000
0000
1f20
31e0
60c0
60c0
60c0
3180
3f00
6000
7fc0
3fe0
2060
4020
4020
7fc0
3f80
0000
ENDCHAR
STARTCHAR C010a
ENCODING 266
SWIDTH 666 0
DWIDTH 12 0
BBX 12 29 0 -7
BITMAP
0000
0000
0000
0000
0000
0000
0000
0000
0000
0600
0600
0000
0000
1f20
31e0
60c0
60c0
60c0
3180
3f00
6000
7fc0
3fe0
2060
4020
4020
7fc0
3f80
0000
ENDCHAR
STARTCHAR C010b
ENCODING 267
SWIDTH 666 0
DWIDTH 12 0
BBX 12 29 0 -7
BITMAP
0000
0000
0000
0000
0000
0000
0000
0300
0600
0c00
1800
0000
0000
1f20
31e0
60c0
60c0
60c0
3180
3f00
6000
7fc0
3fe0
2060
4020
4020
7fc0
3f80
0000
ENDCHAR
STARTCHAR C010c
ENCODING 268
SWIDTH 666 0
DWIDTH 12 0
BBX 12 29 0 -7
BITMAP
0000
0000
0000
0000
0000
0000
0000
0000
0000
0000
0000
0000
0000
1f20
31e0
60c0
60c0
60c0
3180
3f00
6000
7fc0
3fe0
2060
fff0
4020
7fc0
3f80
0000
ENDCHAR
STARTCHAR C010d
ENCODING 269
SWIDTH 666 0
DWIDTH 12 0
BBX 12 29 0 -7
BITMAP
0000
0000
0000
0000
0000
0000
0000
3180
1b00
0e00
0400
0000
0000
1f20
31e0
60c0
60c0
60c0
3180
3f00
6000
7fc0
3fe0
2060
4020
4020
7fc0
3f80
0000
ENDCHAR
STARTCHAR C010e
ENCODING 270
SWIDTH 666 0
DWIDTH 12 0
BBX 12 29 0 -7
BITMAP
0000
0000
0000
0000
0800
1c00
3600
6300
0000
0000
7000
3000
3000
3780
39c0
30c0
30c0
30c0
30c0
30c0
30c0
30c0
79e0
0000
0000
0000
0000
0000
0000
ENDCHAR
STARTCHAR C010f
ENCODING 271
SWIDTH 666 0
DWIDTH 12 0
BBX 12 29 0 -7
BITMAP
0000
0000
0000
0000
0000
0000
0000
0000
7000
3000
7e00
3000
3000
3780
39c0
30c0
30c0
30c0
30c0
30c0
30c0
30c0
79e0
0000
0000
0000
0000
0000
0000
ENDCHAR
STARTCHAR C0110
ENCODING 272
SWIDTH 666 0
DWIDTH 12 0
BBX 12 29 0 -7
BITMAP
0000
0000
0000
0000
0000
0000
0000
1800
0c00
0600
0300
0000
0000
1e00
0600
0600
0600
0600
0600
0600
0600
0600
1f80
0000
0000
0000
0000
0000
0000
ENDCHAR
STARTCHAR C0111
ENCODING 273
SWIDTH 666 0
DWIDTH 12 0
BBX 12 29 0 -7
BITMAP
0000
0000
0000
0000
0000
0000
0000
0300
0600
0c00
1800
0000
0000
1e00
0600
0600
0600
0600
0600
0600
0600
0600
1f80
0000
0000
0000
0000
0000
0000
ENDCHAR
STARTCHAR C0112
ENCODING 274
SWIDTH 666 0
DWIDTH 12 0
BBX 12 29 0 -7
BITMAP
0000
0000
0000
0000
0000
0000
0000
0400
0e00
1b00
3180
0000
0000
1e00
0600
0600
0600
0600
0600
0600
0600
0600
1f80
0000
0000
0000
0000
0000
0000
ENDCHAR
STARTCHAR C0113
ENCODING 275
SWIDTH 666 0
DWIDTH 12 0
BBX 12 29 0 -7
BITMAP
0000
0000
0000
0000
0000
0000
0000
0000
0000
1980
1980
0000
0000
1e00
0600
0600
0600
0600
0600
0600
0600
0600
1f80
0000
0000
0000
0000
0000
0000
ENDCHAR
STARTCHAR C0114
ENCODING 276
SWIDTH 666 0
DWIDTH 12 0
BBX 12 29 0 -7
BITMAP
0000
0000
0000
0000
0000
0000
0000
0000
0000
0000
1f80
0000
0000
1e00
0600
0600
0600
0600
0600
0600
0600
0600
1f80
0000
0000
0000
0000
0000
0000
ENDCHAR
STARTCHAR C0115
ENCODING 277
SWIDTH 666 0
DWIDTH 12 0
BBX 12 29 0 -7
BITMAP
0000
0000
0000
0000
0000
0000
0000
0000
0000
0600
0600
0000
0000
1e00
0600
0600
0600
0600
0600
0600
0600
0600
1f80
0200
0400
0400
0300
0000
0000
ENDCHAR
STARTCHAR C0116
ENCODING 278
SWIDTH 666 0
DWIDTH 12 0
BBX 12 29 0 -7
BITMAP
0000
0000
0000
0000
0000
0000
0000
0000
0000
0000
0000
0000
0000
1e00
0600
0600
0600
0600
0600
0600
0600
0600
1f80
0000
0000
0000
0000
0000
0000
ENDCHAR
STARTCHAR C0117
ENCODING 279
SWIDTH 666 0
DWIDTH 12 0
BBX 12 29 0 -7
BITMAP
0000
0000
0000
0000
0000
0000
0000
0100
0380
06c0
0c60
0000
0000
0780
0180
0180
0180
0180
0180
0180
0180
0180
0180
4180
6180
7100
3e00
1c00
0000
ENDCHAR
STARTCHAR C0118
ENCODING 280
SWIDTH 666 0
DWIDTH 12 0
BBX 12 29 0 -7
BITMAP
0000
0000
0000
0000
0000
0000
0000
0000
3000
7000
3000
3000
3000
30e0
3180
3300
3e00
3c00
3e00
3700
3380
31c0
78f0
0300
0180
00c0
0780
0000
0000
ENDCHAR
STARTCHAR C0119
ENCODING 281
SWIDTH 666 0
DWIDTH 12 0
BBX 12 29 0 -7
BITMAP
0000
0000
c600
6c00
3800
1000
0000
0000
3000
7000
3000
3000
3000
30e0
3180
3300
3e00
3c00
3e00
3700
3380
31c0
78f0
0000
0000
0000
0000
0000
0000
ENDCHAR
STARTCHAR C011a
ENCODING 282
SWIDTH 666 0
DWIDTH 12 0
BBX 12 29 0 -7
BITMAP
0000
0000
0300
0600
0c00
1800
0000
0000
1e00
0600
0600
0600
0600
0600
0600
0600
0600
0600
0600
0600
0600
0600
1f80
0000
0000
0000
0000
0000
0000
ENDCHAR
STARTCHAR C011b
ENCODING 283
SWIDTH 666 0
DWIDTH 12 0
BBX 12 29 0 -7
BITMAP
0000
0000
0000
0000
0000
0000
0000
0000
1e00
0600
0600
0600
0600
0600
0600
0600
0600
0600
0600
0600
0600
0600
1f80
0600
0300
0180
0f00
0000
0000
ENDCHAR
STARTCHAR C011c
ENCODING 284
SWIDTH 666 0
DWIDTH 12 0
BBX 12 29 0 -7
BITMAP
0000
0000
0000
0000
0000
0000
0000
00c0
1e40
06c0
0680
0600
0600
0600
0600
0600
0600
0600
0600
0600
0600
0600
1f80
0000
0000
0000
0000
0000
0000
ENDCHAR
STARTCHAR C011d
ENCODING 285
SWIDTH 666 0
DWIDTH 12 0
BBX 12 29 0 -7
BITMAP
0000
0000
0000
0000
0000
0000
0000
0000
1e00
0600
0600
0600
0600
0660
0660
0600
0600
0600
0600
0600
0600
0600
1f80
0000
0000
0000
0000
0000
0000
ENDCHAR
STARTCHAR C011e
ENCODING 286
SWIDTH 666 0
DWIDTH 12 0
BBX 12 29 0 -7
BITMAP
0000
0000
0000
0000
0000
0000
0000
0000
1e00
0600
0600
0600
0600
0680
0780
0700
0600
0e00
1e00
1600
0600
0600
1f80
0000
0000
0000
0000
0000
0000
ENDCHAR
STARTCHAR C011f
ENCODING 287
SWIDTH 666 0
DWIDTH 12 0
BBX 12 29 0 -7
BITMAP
0000
0000
0000
0000
0000
0000
0000
0000
1c40
3fc0
2380
0000
0000
2780
79c0
30c0
30c0
30c0
30c0
30c0
30c0
30c0
79e0
0000
0000
0000
0000
0000
0000
ENDCHAR
STARTCHAR C0120
ENCODING 288
SWIDTH 666 0
DWIDTH 12 0
BBX 12 29 0 -7
BITMAP
0000
0000
0000
0000
0000
0000
0000
0180
0300
0600
0c00
0000
0000
2780
79c0
30c0
30c0
30c0
30c0
30c0
30c0
30c0
79e0
0000
0000
0000
0000
0000
0000
ENDCHAR
STARTCHAR C0121
ENCODING 289
SWIDTH 666 0
DWIDTH 12 0
BBX 12 29 0 -7
BITMAP
0000
0000
0000
0000
0000
0000
0000
0000
0000
0000
0000
0000
0000
2780
79c0
30c0
30c0
30c0
30c0
30c0
30c0
30c0
79e0
0300
0180
00c0
0780
0000
0000
ENDCHAR
STARTCHAR C0122
ENCODING 290
SWIDTH 666 0
DWIDTH 12 0
BBX 12 29 0 -7
BITMAP
0000
0000
0000
0000
0000
0000
0000
3180
1b00
0e00
0400
0000
0000
2780
79c0
30c0
30c0
30c0
30c0
30c0
30c0
30c0
79e0
0000
0000
0000
0000
0000
0000
ENDCHAR
STARTCHAR C0123
ENCODING 291
SWIDTH 666 0
DWIDTH 12 0
BBX 12 29 0 -7
BITMAP
0000
0000
0000
0000
0000
0000
0000
1800
0c00
0600
0300
0000
0000
0f80
11c0
20e0
6060
6060
6060
6060
7040
3880
1f00
0000
0000
0000
0000
0000
0000
ENDCHAR
STARTCHAR C0124
ENCODING 292
SWIDTH 666 0
DWIDTH 12 0
BBX 12 29 0 -7
BITMAP
0000
0000
0000
0000
0000
0000
0000
0180
0300
0600
0c00
0000
0000
0f80
11c0
20e0
6060
6060
6060
6060
7040
3880
1f00
0000
0000
0000
0000
0000
0000
ENDCHAR
STARTCHAR C0125
ENCODING 293
SWIDTH 666 0
DWIDTH 12 0
BBX 12 29 0 -7
BITMAP
0000
0000
0000
0000
0000
0000
0000
0200
0700
0d80
18c0
0000
0000
0f80
11c0
20e0
6060
6060
6060
6060
7040
3880
1f00
0000
0000
0000
0000
0000
0000
ENDCHAR
STARTCHAR C0126
ENCODING 294
SWIDTH 666 0
DWIDTH 12 0
BBX 12 29 0 -7
BITMAP
0000
0000
0000
0000
0000
0000
0000
0000
1c40
3fc0
2380
0000
0000
0f80
11c0
20e0
6060
6060
6060
6060
7040
3880
1f00
0000
0000
0000
0000
0000
0000
ENDCHAR
STARTCHAR C0127
ENCODING 295
SWIDTH 666 0
DWIDTH 12 0
BBX 12 29 0 -7
BITMAP
0000
0000
0000
0000
0000
0000
0000
0000
0000
1980
1980
0000
0000
0f80
11c0
20e0
6060
6060
6060
6060
7040
3880
1f00
0000
0000
0000
0000
0000
0000
ENDCHAR
STARTCHAR C0128
ENCODING 296
SWIDTH 666 0
DWIDTH 12 0
BBX 12 29 0 -7
BITMAP
0000
0000
0000
0000
0000
0000
0000
0000
0000
0000
1f80
0000
0000
0f80
11c0
20e0
6060
6060
6060
6060
7040
3880
1f00
0000
0000
0000
0000
0000
0000
ENDCHAR
STARTCHAR C0129
ENCODING 297
SWIDTH 666 0
DWIDTH 12 0
BBX 12 29 0 -7
BITMAP
0000
0000
0000
0000
0000
0000
0000
0000
0cc0
1980
3300
0000
0000
0f80
11c0
20e0
6060
6060
6060
6060
7040
3880
1f00
0000
0000
0000
0000
0000
0000
ENDCHAR
STARTCHAR C012a
ENCODING 298
SWIDTH 666 0
DWIDTH 12 0
BBX 12 29 0 -7
BITMAP
0000
0000
0000
0000
0000
0000
0000
0180
0300
0600
0c00
0000
0000
39c0
1a60
1c60
1800
1800
1800
1800
1800
1800
3c00
0000
0000
0000
0000
0000
0000
ENDCHAR
STARTCHAR C012b
ENCODING 299
SWIDTH 666 0
DWIDTH 12 0
BBX 12 29 0 -7
BITMAP
0000
0000
0000
0000
0000
0000
0000
18c0
0d80
0700
0200
0000
0000
39c0
1a60
1c60
1800
1800
1800
1800
1800
1800
3c00
0000
0000
0000
0000
0000
0000
ENDCHAR
STARTCHAR C012c
ENCODING 300
SWIDTH 666 0
DWIDTH 12 0
BBX 12 29 0 -7
BITMAP
0000
0000
0000
0000
0000
0000
0000
0180
0300
0600
0c00
0000
0000
1fc0
30c0
3040
3800
1e00
0780
01c0
20c0
30c0
3f80
0000
0000
0000
0000
0000
0000
ENDCHAR
STARTCHAR C012d
ENCODING 301
SWIDTH 666 0
DWIDTH 12 0
BBX 12 29 0 -7
BITMAP
0000
0000
0000
0000
0000
0000
0000
0200
0700
0d80
18c0
0000
0000
1fc0
30c0
3040
3800
1e00
0780
01c0
20c0
30c0
3f80
0000
0000
0000
0000
0000
0000
ENDCHAR
STARTCHAR C012e
ENCODING 302
SWIDTH 666 0
DWIDTH 12 0
BBX 12 29 0 -7
BITMAP
0000
0000
0000
0000
0000
0000
0000
0000
0000
0000
0000
0000
0000
1fc0
30c0
3040
3800
1e00
0780
01c0
20c0
30c0
3f80
0600
0300
0180
0f00
0000
0000
ENDCHAR
STARTCHAR C012f
ENCODING 303
SWIDTH 666 0
DWIDTH 12 0
BBX 12 29 0 -7
BITMAP
0000
0000
0000
0000
0000
0000
0000
3180
1b00
0e00
0400
0000
0000
1fc0
30c0
3040
3800
1e00
0780
01c0
20c0
30c0
3f80
0000
0000
0000
0000
0000
0000
ENDCHAR
STARTCHAR C0130
ENCODING 304
SWIDTH 666 0
DWIDTH 12 0
BBX 12 29 0 -7
BITMAP
0000
0000
0000
0000
0000
0000
0000
0000
0000
0000
0000
0000
0000
1fc0
30c0
3040
3800
1e00
0780
01c0
20c0
30c0
3f80
0000
0700
0300
0600
0000
0000
ENDCHAR
STARTCHAR C0131
ENCODING 305
SWIDTH 666 0
DWIDTH 12 0
BBX 12 29 0 -7
BITMAP
0000
0000
0000
0000
0000
0000
0000
0000
00c0
0040
04c0
0480
0c00
7fc0
0c00
0c00
0c00
0c00
0c00
0c00
0c20
0e40
0780
0000
0000
0000
0000
0000
0000
ENDCHAR
STARTCHAR C0132
ENCODING 306
SWIDTH 666 0
DWIDTH 12 0
BBX 12 29 0 -7
BITMAP
0000
0000
0000
0000
0000
0000
0000
0000
0000
0000
0400
0400
0c00
7fc0
0c00
0c00
0c00
3f00
0c00
0c00
0c20
0e40
0780
0000
0000
0000
0000
0000
0000
ENDCHAR
STARTCHAR C0133
ENCODING 307
SWIDTH 666 0
DWIDTH 12 0
BBX 12 29 0 -7
BITMAP
0000
0000
0000
0000
0000
0000
0000
0000
0000
0000
0400
0400
0c00
7fc0
0c00
0c00
0c00
0c00
0c00
0c00
0c20
0e40
0780
0000
0700
0300
0600
0000
0000
ENDCHAR
STARTCHAR C0134
ENCODING 308
SWIDTH 666 0
DWIDTH 12 0
BBX 12 29 0 -7
BITMAP
0000
0000
0000
0000
0000
0000
0000
0c00
0600
0300
0180
0000
0000
79e0
30c0
30c0
30c0
30c0
30c0
30c0
30c0
39c0
1e60
0000
0000
0000
0000
0000
0000
ENDCHAR
STARTCHAR C0135
ENCODING 309
SWIDTH 666 0
DWIDTH 12 0
BBX 12 29 0 -7
BITMAP
0000
0000
0000
0000
0000
0000
0000
0180
0300
0600
0c00
0000
0000
79e0
30c0
30c0
30c0
30c0
30c0
30c0
30c0
39c0
1e60
0000
0000
0000
0000
0000
0000
ENDCHAR
STARTCHAR C0136
ENCODING 310
SWIDTH 666 0
DWIDTH 12 0
BBX 12 29 0 -7
BITMAP
0000
0000
0000
0000
0000
0000
0000
0200
0700
0d80
18c0
0000
0000
79e0
30c0
30c0
30c0
30c0
30c0
30c0
30c0
39c0
1e60
0000
0000
0000
0000
0000
0000
ENDCHAR
STARTCHAR C0137
ENCODING 311
SWIDTH 666 0
DWIDTH 12 0
BBX 12 29 0 -7
BITMAP
0000
0000
0000
0000
0000
0000
0000
0000
0000
1980
1980
0000
0000
79e0
30c0
30c0
30c0
30c0
30c0
30c0
30c0
39c0
1e60
0000
0000
0000
0000
0000
0000
ENDCHAR
STARTCHAR C0138
ENCODING 312
SWIDTH 666 0
DWIDTH 12 0
BBX 12 29 0 -7
BITMAP
0000
0000
0000
0000
0000
0000
0000
0000
0000
0000
1f80
0000
0000
79e0
30c0
30c0
30c0
30c0
30c0
30c0
30c0
39c0
1e60
0000
0000
0000
0000
0000
0000
ENDCHAR
STARTCHAR C0139
ENCODING 313
SWIDTH 666 0
DWIDTH 12 0
BBX 12 29 0 -7
BITMAP
0000
0000
0000
0000
0000
0000
0000
0000
0000
1980
0f00
0000
0000
79e0
30c0
30c0
30c0
30c0
30c0
30c0
30c0
39c0
1e60
0000
0000
0000
0000
0000
0000
ENDCHAR
STARTCHAR C013a
ENCODING 314
SWIDTH 666 0
DWIDTH 12 0
BBX 12 29 0 -7
BITMAP
0000
0000
0000
0000
0000
0000
0000
0600
0900
0900
0600
0000
0000
79e0
30c0
30c0
30c0
30c0
30c0
30c0
30c0
39c0
1e60
0000
0000
0000
0000
0000
0000
ENDCHAR
STARTCHAR C013b
ENCODING 315
SWIDTH 666 0
DWIDTH 12 0
BBX 12 29 0 -7
BITMAP
0000
0000
0000
0000
0000
0000
0000
0000
0660
0cc0
1980
0000
0000
79e0
30c0
30c0
30c0
30c0
30c0
30c0
30c0
39c0
1e60
0000
0000
0000
0000
0000
0000
ENDCHAR
STARTCHAR C013c
ENCODING 316
SWIDTH 666 0
DWIDTH 12 0
BBX 12 29 0 -7
BITMAP
0000
0000
0000
0000
0000
0000
0000
0000
0000
0000
0000
0000
0000
79e0
30c0
30c0
30c0
30c0
30c0
30c0
30c0
39c0
1e60
0040
0080
0080
0060
0000
0000
ENDCHAR
STARTCHAR C013d
ENCODING 317
SWIDTH 666 0
DWIDTH 12 0
BBX 12 29 0 -7
BITMAP
0000
0000
0000
0000
0000
0000
0000
0400
0e00
1b00
3180
0000
0000
ff70
6620
6620
6620
3740
3b40
3b40
1980
1980
1980
0000
0000
0000
0000
0000
0000
ENDCHAR
STARTCHAR C013e
ENCODING 318
SWIDTH 666 0
DWIDTH 12 0
BBX 12 29 0 -7
BITMAP
0000
0000
0000
0000
0000
0000
0000
1800
0c00
0600
0300
0000
0000
ff70
6620
6620
6620
3740
3b40
3b40
1980
1980
1980
0000
0000
0000
0000
0000
0000
ENDCHAR
STARTCHAR C013f
ENCODING 319
SWIDTH 666 0
DWIDTH 12 0
BBX 12 29 0 -7
BITMAP
0000
0000
0000
0000
0000
0000
0000
0180
0300
0600
0c00
0000
0000
ff70
6620
6620
6620
3740
3b40
3b40
1980
1980
1980
0000
0000
0000
0000
0000
0000
ENDCHAR
STARTCHAR C0140
ENCODING 320
SWIDTH 666 0
DWIDTH 12 0
BBX 12 29 0 -7
BITMAP
0000
0000
0000
0000
0000
0000
0000
0000
0000
1980
1980
0000
0000
ff70
6620
6620
6620
3740
3b40
3b40
1980
1980
1980
0000
0000
0000
0000
0000
0000
ENDCHAR
STARTCHAR C0141
ENCODING 321
SWIDTH 666 0
DWIDTH 12 0
BBX 12 29 0 -7
BITMAP
0000
0000
0000
0000
0000
0000
0000
0180
0300
0600
0c00
0000
0000
f0f0
6020
3040
3040
1880
1880
0d00
0d00
0600
0600
0400
0c00
0800
7800
7000
0000
ENDCHAR
STARTCHAR C0142
ENCODING 322
SWIDTH 666 0
DWIDTH 12 0
BBX 12 29 0 -7
BITMAP
0000
0000
0000
0000
0000
0000
0000
0200
0700
0d80
18c0
0000
0000
f0f0
6020
3040
3040
1880
1880
0d00
0d00
0600
0600
0400
0c00
0800
7800
7000
0000
ENDCHAR
STARTCHAR C0143
ENCODING 323
SWIDTH 666 0
DWIDTH 12 0
BBX 12 29 0 -7
BITMAP
0000
0000
0000
0000
0000
0000
0000
0000
0000
1980
1980
0000
0000
f0f0
6020
3040
3040
1880
1880
0d00
0d00
0600
0600
0400
0c00
0800
7800
7000
0000
ENDCHAR
STARTCHAR C0144
ENCODING 324
SWIDTH 666 0
DWIDTH 12 0
BBX 12 29 0 -7
BITMAP
0000
0000
0000
0000
0000
0000
0000
1800
0c00
0600
0300
0000
0000
f0f0
6020
3040
3040
1880
1880
0d00
0d00
0600
0600
0400
0c00
0800
7800
7000
0000
ENDCHAR
STARTCHAR C0145
ENCODING 325
SWIDTH 666 0
DWIDTH 12 0
BBX 12 29 0 -7
BITMAP
0000
0000
0000
0000
0000
0000
0000
0180
0300
0600
0c00
0000
0000
7fe0
60e0
41c0
0380
0700
0e00
1c00
3820
7060
7fe0
0000
0000
0000
0000
0000
0000
ENDCHAR
STARTCHAR C0146
ENCODING 326
SWIDTH 666 0
DWIDTH 12 0
BBX 12 29 0 -7
BITMAP
0000
0000
0000
0000
0000
0000
0000
0000
0000
0600
0600
0000
0000
7fe0
60e0
41c0
0380
0700
0e00
1c00
3820
7060
7fe0
0000
0000
0000
0000
0000
0000
ENDCHAR
STARTCHAR C0147
ENCODING 327
SWIDTH 666 0
DWIDTH 12 0
BBX 12 29 0 -7
BITMAP
0000
0000
0000
0000
0000
0000
0000
18c0
0d80
0700
0200
0000
0000
7fe0
60e0
41c0
0380
0700
0e00
1c00
3820
7060
7fe0
0000
0000
0000
0000
0000
0000
ENDCHAR
STARTCHAR C0148
ENCODING 328
SWIDTH 666 0
DWIDTH 12 0
BBX 12 29 0 -7
BITMAP
0000
0000
0000
0000
0000
18c0
0d80
0700
0200
0000
0000
3fe0
20c0
0300
0c00
1000
3f00
21c0
00e0
0060
0060
0060
0060
20c0
30c0
3980
1f00
0000
0000
ENDCHAR
STARTCHAR C0149
ENCODING 329
SWIDTH 666 0
DWIDTH 12 0
BBX 12 29 0 -7
BITMAP
0000
0000
1fc0
0000
0000
18c0
18c0
0000
0000
f070
6020
6020
6020
6020
6020
6020
6020
6020
6020
6020
7040
3fc0
1f80
0000
0000
0000
0000
0000
0000
ENDCHAR
STARTCHAR C014a
ENCODING 330
SWIDTH 666 0
DWIDTH 12 0
BBX 12 29 0 -7
BITMAP
0000
0000
0000
0000
0000
0000
1f80
0000
0000
1980
1980
0000
0000
79e0
30c0
30c0
30c0
30c0
30c0
30c0
30c0
39c0
1e60
0000
0000
0000
0000
0000
0000
ENDCHAR
STARTCHAR C014b
ENCODING 331
SWIDTH 666 0
DWIDTH 12 0
BBX 12 29 0 -7
BITMAP
0000
0180
0300
0600
0000
18c0
18c0
0000
0000
f070
6020
6020
6020
6020
6020
6020
6020
6020
6020
6020
7040
3fc0
1f80
0000
0000
0000
0000
0000
0000
ENDCHAR
STARTCHAR C014c
ENCODING 332
SWIDTH 666 0
DWIDTH 12 0
BBX 12 29 0 -7
BITMAP
0000
0000
0000
0000
0000
0300
0600
0c00
0000
1980
1980
0000
0000
79e0
30c0
30c0
30c0
30c0
30c0
30c0
30c0
39c0
1e60
0000
0000
0000
0000
0000
0000
ENDCHAR
STARTCHAR C014d
ENCODING 333
SWIDTH 666 0
DWIDTH 12 0
BBX 12 29 0 -7
BITMAP
18c0
0d80
0700
0200
0000
18c0
18c0
0000
0000
f070
6020
6020
6020
6020
6020
6020
6020
6020
6020
6020
7040
3fc0
1f80
0000
0000
0000
0000
0000
0000
ENDCHAR
STARTCHAR C014e
ENCODING 334
SWIDTH 666 0
DWIDTH 12 0
BBX 12 29 0 -7
BITMAP
0000
0000
0000
0000
3180
1b00
0e00
0400
0000
1980
1980
0000
0000
79e0
30c0
30c0
30c0
30c0
30c0
30c0
30c0
39c0
1e60
0000
0000
0000
0000
0000
0000
ENDCHAR
STARTCHAR C014f
ENCODING 335
SWIDTH 666 0
DWIDTH 12 0
BBX 12 29 0 -7
BITMAP
0000
0c00
0600
0300
0000
18c0
18c0
0000
0000
f070
6020
6020
6020
6020
6020
6020
6020
6020
6020
6020
7040
3fc0
1f80
0000
0000
0000
0000
0000
0000
ENDCHAR
STARTCHAR C0150
ENCODING 336
SWIDTH 666 0
DWIDTH 12 0
BBX 12 29 0 -7
BITMAP
0000
0000
0000
0000
0000
0c00
0600
0300
0000
1980
1980
0000
0000
79e0
30c0
30c0
30c0
30c0
30c0
30c0
30c0
39c0
1e60
0000
0000
0000
0000
0000
0000
ENDCHAR
STARTCHAR C0151
ENCODING 337
SWIDTH 666 0
DWIDTH 12 0
BBX 12 29 0 -7
BITMAP
0000
0000
0000
0000
0000
0000
0000
0000
0000
0000
0000
0000
0660
0cc0
1980
3300
6600
3300
1980
0cc0
0660
0000
0000
0000
0000
0000
0000
0000
0000
ENDCHAR
STARTCHAR C0152
ENCODING 338
SWIDTH 666 0
DWIDTH 12 0
BBX 12 29 0 -7
BITMAP
0000
0000
0000
0000
0000
0000
0000
fff0
0000
0000
0000
0000
0000
0000
0000
0000
0000
0000
0000
0000
0000
0000
0000
0000
0000
0000
0000
0000
0000
ENDCHAR
STARTCHAR C0153
ENCODING 339
SWIDTH 666 0
DWIDTH 12 0
BBX 12 29 0 -7
BITMAP
0000
0000
0000
0000
0000
0000
0000
0e00
1100
1100
1100
0e00
0000
0000
0000
0000
0000
0000
0000
0000
0000
0000
0000
0000
0000
0000
0000
0000
0000
ENDCHAR
STARTCHAR C0154
ENCODING 340
SWIDTH 666 0
DWIDTH 12 0
BBX 12 29 0 -7
BITMAP
0000
0000
0000
0000
0000
0000
0000
0000
0000
0000
0000
0600
0600
0600
0600
7fe0
0600
0600
0600
0600
0000
3fc0
0000
0000
0000
0000
0000
0000
0000
ENDCHAR
STARTCHAR C0155
ENCODING 341
SWIDTH 666 0
DWIDTH 12 0
BBX 12 29 0 -7
BITMAP
0000
0000
0000
0000
0f80
19c0
00c0
0080
0180
0300
0600
0c00
1840
3fc0
0000
0000
0000
0000
0000
0000
0000
0000
0000
0000
0000
0000
0000
0000
0000
ENDCHAR
STARTCHAR C0156
ENCODING 342
SWIDTH 666 0
DWIDTH 12 0
BBX 12 29 0 -7
BITMAP
0000
0000
0000
0000
1f00
3180
0180
0300
0e00
0100
0180
0180
3300
1e00
0000
0000
0000
0000
0000
0000
0000
0000
0000
0000
0000
0000
0000
0000
0000
ENDCHAR
STARTCHAR C0157
ENCODING 343
SWIDTH 666 0
DWIDTH 12 0
BBX 12 29 0 -7
BITMAP
0000
0000
0000
0000
0000
0000
0000
0000
0000
0000
0000
0000
0000
0400
1f00
0e00
0a00
0000
2080
fbe0
71c0
5140
0000
0000
0000
0000
0000
0000
0000
ENDCHAR
STARTCHAR C0158
ENCODING 344
SWIDTH 666 0
DWIDTH 12 0
BBX 12 29 0 -7
BITMAP
0000
0000
0000
0000
0000
0000
0000
0000
0000
0fe0
1e40
3e40
3e40
3e40
1e40
0e40
0240
0240
0240
0240
0240
0240
0240
0000
0000
0000
0000
0000
0000
ENDCHAR
STARTCHAR C0159
ENCODING 345
SWIDTH 666 0
DWIDTH 12 0
BBX 12 29 0 -7
BITMAP
0000
0000
0000
0000
0000
0000
0000
0000
0000
0000
0000
0000
0000
0000
0000
0600
0f00
0f00
0600
0000
0000
0000
0000
0000
0000
0000
0000
0000
0000
ENDCHAR
STARTCHAR C015a
ENCODING 346
SWIDTH 666 0
DWIDTH 12 0
BBX 12 29 0 -7
BITMAP
0000
0000
0000
0000
0000
0000
0000
0000
0000
0000
0000
3fc0
3fc0
3fc0
3fc0
3fc0
3fc0
3fc0
3fc0
3fc0
3fc0
3fc0
3fc0
0000
0000
0000
0000
0000
0000
ENDCHAR
STARTCHAR C015b
ENCODING 347
SWIDTH 666 0
DWIDTH 12 0
BBX 12 29 0 -7
BITMAP
0000
0000
0000
0000
0200
0600
0e00
1600
0600
0600
0600
0600
0600
0f00
0000
0000
0000
0000
0000
0000
0000
0000
0000
0000
0000
0000
0000
0000
0000
ENDCHAR
STARTCHAR C015c
ENCODING 348
SWIDTH 666 0
DWIDTH 12 0
BBX 12 29 0 -7
BITMAP
0000
0000
0000
0000
0000
0000
0000
0000
0000
0700
1980
10c0
30c0
30c0
30c0
3080
1980
0e00
0000
3fc0
0000
0000
0000
0000
0000
0000
0000
0000
0000
ENDCHAR
STARTCHAR C015d
ENCODING 349
SWIDTH 666 0
DWIDTH 12 0
BBX 12 29 0 -7
BITMAP
0000
0000
0000
0000
0000
0000
0000
0000
0000
0000
0000
0000
6600
3300
1980
0cc0
0660
0cc0
1980
3300
6600
0000
0000
0000
0000
0000
0000
0000
0000
ENDCHAR
STARTCHAR C015e
ENCODING 350
SWIDTH 666 0
DWIDTH 12 0
BBX 12 29 0 -7
BITMAP
0000
0000
0000
0000
0000
0000
0000
0000
0600
0600
0000
0000
0600
0600
0600
0400
0800
1000
3000
3040
3840
1d80
0f00
0000
0000
0000
0000
0000
0000
ENDCHAR
STARTCHAR C015f
ENCODING 351
SWIDTH 666 0
DWIDTH 12 0
BBX 12 29 0 -7
BITMAP
0000
0000
0000
0000
0000
0000
0000
0000
0000
0000
0000
0000
0000
0000
30c0
1980
0f00
0600
0f00
1980
30c0
0000
0000
0000
0000
0000
0000
0000
0000
ENDCHAR
STARTCHAR C0160
ENCODING 352
SWIDTH 666 0
DWIDTH 12 0
BBX 12 29 0 -7
BITMAP
0000
0000
0000
0000
0000
0000
0000
0000
0000
0000
0000
0000
0000
0600
0600
0000
0000
7fe0
0000
0000
0600
0600
0000
0000
0000
0000
0000
0000
0000
ENDCHAR
STARTCHAR C0161
ENCODING 353
SWIDTH 666 0
DWIDTH 12 0
BBX 12 29 0 -7
BITMAP
0000
0000
0000
0000
0000
0000
0000
0000
0000
0000
0000
3fc0
3fc0
3fc0
3fc0
3fc0
3fc0
3fc0
3fc0
3fc0
3fc0
3fc0
3fc0
0000
0000
0000
0000
0000
0000
ENDCHAR
STARTCHAR C0162
ENCODING 354
SWIDTH 666 0
DWIDTH 12 0
BBX 12 29 0 -7
BITMAP
0000
0000
0000
0000
0000
0000
0000
0000
0000
0000
0000
3fc0
3fc0
3fc0
3fc0
3fc0
3fc0
3fc0
3fc0
3fc0
3fc0
3fc0
3fc0
0000
0000
0000
0000
0000
0000
ENDCHAR
STARTCHAR C0163
ENCODING 355
SWIDTH 666 0
DWIDTH 12 0
BBX 12 29 0 -7
BITMAP
0000
0000
0000
0000
0000
0000
0000
0000
0000
0000
0000
3fc0
3fc0
3fc0
3fc0
3fc0
3fc0
3fc0
3fc0
3fc0
3fc0
3fc0
3fc0
0000
0000
0000
0000
0000
0000
ENDCHAR
STARTCHAR C0164
ENCODING 356
SWIDTH 666 0
DWIDTH 12 0
BBX 12 29 0 -7
BITMAP
0000
0000
0000
0000
0000
0000
0000
0000
0000
0000
0000
3fc0
3fc0
3fc0
3fc0
3fc0
3fc0
3fc0
3fc0
3fc0
3fc0
3fc0
3fc0
0000
0000
0000
0000
0000
0000
ENDCHAR
STARTCHAR C0165
ENCODING 357
SWIDTH 666 0
DWIDTH 12 0
BBX 12 29 0 -7
BITMAP
0000
0000
0000
0000
0000
0000
0000
0000
0000
0000
0000
0000
0000
0000
0000
0000
0000
0000
0000
30c0
79e0
79e0
1860
1860
30c0
2080
0000
0000
0000
ENDCHAR
STARTCHAR C0166
ENCODING 358
SWIDTH 666 0
DWIDTH 12 0
BBX 12 29 0 -7
BITMAP
0000
0000
0000
0000
0000
0000
0000
0000
0000
0000
0000
0000
0000
0000
0000
0000
0000
0000
0000
2220
7770
7770
2220
0000
0000
0000
0000
0000
0000
ENDCHAR
STARTCHAR C0167
ENCODING 359
SWIDTH 666 0
DWIDTH 12 0
BBX 12 29 0 -7
BITMAP
0000
0000
0000
0000
0000
0000
0000
0000
0000
6300
9300
9600
6600
0c00
0c00
1800
1800
3000
3000
6660
6990
c990
c660
0000
0000
0000
0000
0000
0000
ENDCHAR
STARTCHAR C0168
ENCODING 360
SWIDTH 666 0
DWIDTH 12 0
BBX 12 29 0 -7
BITMAP
0000
0000
0000
0000
0000
0000
0000
0000
0000
0000
0000
0000
0180
0300
0600
0c00
1800
0c00
0600
0300
0180
0000
0000
0000
0000
0000
0000
0000
0000
ENDCHAR
STARTCHAR C0169
ENCODING 361
SWIDTH 666 0
DWIDTH 12 0
BBX 12 29 0 -7
BITMAP
0000
0000
0000
0000
0000
0000
0000
0000
0000
0000
0000
0000
1800
0c00
0600
0300
0180
0300
0600
0c00
1800
0000
0000
0000
0000
0000
0000
0000
0000
ENDCHAR
STARTCHAR C016a
ENCODING 362
SWIDTH 666 0
DWIDTH 12 0
BBX 12 29 0 -7
BITMAP
0000
0000
0000
0000
0000
0000
0000
0000
fa20
2360
22a0
2220
2220
0000
0000
0000
0000
0000
0000
0000
0000
0000
0000
0000
0000
0000
0000
0000
0000
ENDCHAR
STARTCHAR C016b
ENCODING 363
SWIDTH 666 0
DWIDTH 12 0
BBX 12 29 0 -7
BITMAP
0000
0000
0000
0000
0000
0000
0000
0000
0600
0600
0000
0000
0600
0600
0600
0600
0f00
0f00
0f00
0f00
0f00
0f00
0f00
0600
0000
0000
0000
0000
0000
ENDCHAR
STARTCHAR C016c
ENCODING 364
SWIDTH 666 0
DWIDTH 12 0
BBX 12 29 0 -7
BITMAP
0000
0000
0000
0000
0000
0000
0000
0000
1f00
3180
3000
1800
0c00
1e00
3300
3180
1980
0f00
0600
0300
0180
3180
1f00
0000
0000
0000
0000
0000
0000
ENDCHAR
STARTCHAR C016d
ENCODING 365
SWIDTH 666 0
DWIDTH 12 0
BBX 12 29 0 -7
BITMAP
0000
0000
0000
0000
0000
0000
0000
1040
30c0
6180
6180
79e0
79e0
30c0
0000
0000
0000
0000
0000
0000
0000
0000
0000
0000
0000
0000
0000
0000
0000
ENDCHAR
STARTCHAR C016e
ENCODING 366
SWIDTH 666 0
DWIDTH 12 0
BBX 12 29 0 -7
BITMAP
0000
0000
0000
0000
0000
0000
0000
0000
0000
0000
0000
0f00
30c0
4020
4f20
9090
9010
9010
9090
4f20
4020
30c0
0f00
0000
0000
0000
0000
0000
0000
ENDCHAR
STARTCHAR C016f
ENCODING 367
SWIDTH 666 0
DWIDTH 12 0
BBX 12 29 0 -7
BITMAP
0000
0000
0000
0000
0000
0000
0000
0000
0000
0f00
1180
2180
0180
0f80
3180
3180
3380
1cc0
0000
3fc0
0000
0000
0000
0000
0000
0000
0000
0000
0000
ENDCHAR
STARTCHAR C0170
ENCODING 368
SWIDTH 666 0
DWIDTH 12 0
BBX 12 29 0 -7
BITMAP
0000
0000
0000
0000
0000
0000
0000
0000
0000
0000
0000
0f00
30c0
4020
5f20
9090
9090
9f10
9110
50a0
4020
30c0
0f00
0000
0000
0000
0000
0000
0000
ENDCHAR
STARTCHAR C0171
ENCODING 369
SWIDTH 666 0
DWIDTH 12 0
BBX 12 29 0 -7
BITMAP
0000
0000
0000
0000
0000
0000
0800
1800
3000
2600
0600
0b00
0b00
0900
1180
1180
1080
3fc0
20c0
2040
4060
4060
e0f0
0000
0000
0000
0000
0000
0000
ENDCHAR
STARTCHAR C0172
ENCODING 370
SWIDTH 666 0
DWIDTH 12 0
BBX 12 29 0 -7
BITMAP
0000
0000
0000
0000
0000
0000
2000
6000
c000
bfe0
1820
1800
1800
1800
1840
1fc0
1840
1800
1800
1800
1800
1810
3ff0
0000
0000
0000
0000
0000
0000
ENDCHAR
STARTCHAR C0173
ENCODING 371
SWIDTH 666 0
DWIDTH 12 0
BBX 12 29 0 -7
BITMAP
0000
0000
0000
0000
0000
0000
2000
6000
c000
b8f0
3060
3060
3060
3060
3060
3fe0
3060
3060
3060
3060
3060
3060
78f0
0000
0000
0000
0000
0000
0000
ENDCHAR
STARTCHAR C0174
ENCODING 372
SWIDTH 666 0
DWIDTH 12 0
BBX 12 29 0 -7
BITMAP
0000
0000
0000
0000
0000
0000
1000
3000
6000
5f80
0600
0600
0600
0600
0600
0600
0600
0600
0600
0600
0600
0600
1f80
0000
0000
0000
0000
0000
0000
ENDCHAR
STARTCHAR C0175
ENCODING 373
SWIDTH 666 0
DWIDTH 12 0
BBX 12 29 0 -7
BITMAP
0000
0000
0000
0000
0000
0000
2000
6000
c000
8f00
11c0
20c0
2060
6060
6060
6060
6060
6060
6060
2040
3040
1880
0f00
0000
0000
0000
0000
0000
0000
ENDCHAR
STARTCHAR C0176
ENCODING 374
SWIDTH 666 0
DWIDTH 12 0
BBX 12 29 0 -7
BITMAP
0000
0000
0000
0000
0000
0000
2000
6000
c000
b070
2020
3040
1880
1880
0d00
0600
0600
0600
0600
0600
0600
0600
0f00
0000
0000
0000
0000
0000
0000
ENDCHAR
STARTCHAR C0177
ENCODING 375
SWIDTH 666 0
DWIDTH 12 0
BBX 12 29 0 -7
BITMAP
0000
0000
0000
0000
0000
0000
2000
6000
c000
8f00
39c0
6060
4030
c030
c030
c030
c030
6060
70e0
1980
8910
f9f0
f9f0
0000
0000
0000
0000
0000
0000
ENDCHAR
STARTCHAR C0178
ENCODING 376
SWIDTH 666 0
DWIDTH 12 0
BBX 12 29 0 -7
BITMAP
0000
0000
0000
0000
0000
0300
0600
0c00
0000
1980
1980
0000
0000
1e00
0600
0600
0600
0600
0600
0600
0600
0780
0300
0000
0000
0000
0000
0000
0000
ENDCHAR
STARTCHAR C0179
ENCODING 377
SWIDTH 666 0
DWIDTH 12 0
BBX 12 29 0 -7
BITMAP
0000
0000
0000
0000
0000
0000
0000
0000
0000
7fe0
3060
3020
3000
3000
3000
3000
3000
3000
3000
3000
3000
3000
7800
0000
0000
0000
0000
0000
0000
ENDCHAR
STARTCHAR C017a
ENCODING 378
SWIDTH 666 0
DWIDTH 12 0
BBX 12 29 0 -7
BITMAP
0000
0000
0000
0000
0000
0000
0000
0000
0000
0600
0600
0b00
0b00
0900
1180
1180
1080
20c0
20c0
2040
4060
4060
fff0
0000
0000
0000
0000
0000
0000
ENDCHAR
STARTCHAR C017b
ENCODING 379
SWIDTH 666 0
DWIDTH 12 0
BBX 12 29 0 -7
BITMAP
0000
0000
0000
0000
0000
0000
0000
0000
0000
0f00
11c0
20c0
2060
6060
6060
6f60
6f60
6060
6060
2040
3040
1880
0f00
0000
0000
0000
0000
0000
0000
ENDCHAR
STARTCHAR C017c
ENCODING 380
SWIDTH 666 0
DWIDTH 12 0
BBX 12 29 0 -7
BITMAP
0000
0000
0000
0000
0000
0000
0000
0000
0000
0600
0600
0b00
0b00
0900
1180
1180
1080
20c0
20c0
2040
4060
4060
e0f0
0000
0000
0000
0000
0000
0000
ENDCHAR
STARTCHAR C017d
ENCODING 381
SWIDTH 666 0
DWIDTH 12 0
BBX 12 29 0 -7
BITMAP
0000
0000
0000
0000
0000
0000
0000
0000
0000
7fe0
7fe0
4020
0000
0000
1080
1f80
1f80
1080
0000
0000
4020
7fe0
7fe0
0000
0000
0000
0000
0000
0000
ENDCHAR
STARTCHAR C017e
ENCODING 382
SWIDTH 666 0
DWIDTH 12 0
BBX 12 29 0 -7
BITMAP
0000
0000
0000
0000
0000
0000
0000
0000
0000
7fe0
30c0
30c0
30c0
30c0
30c0
30c0
30c0
30c0
30c0
30c0
30c0
30c0
79e0
0000
0000
0000
0000
0000
0000
ENDCHAR
STARTCHAR C017f
ENCODING 383
SWIDTH 666 0
DWIDTH 12 0
BBX 12 29 0 -7
BITMAP
0000
0000
0000
0000
0000
0000
0000
0000
0000
7fe0
2060
3020
1000
1800
0800
0c00
0600
0c00
1800
1800
3020
6060
7fe0
0000
0000
0000
0000
0000
0000
ENDCHAR
STARTCHAR C0180
ENCODING 384
SWIDTH 666 0
DWIDTH 12 0
BBX 12 29 0 -7
BITMAP
0000
0000
0000
0000
0000
0000
0000
0000
0000
1f80
0600
1f80
2660
4620
4630
c630
c630
c620
4620
6640
1f80
0600
1f80
0000
0000
0000
0000
0000
0000
ENDCHAR
STARTCHAR C0181
ENCODING 385
SWIDTH 666 0
DWIDTH 12 0
BBX 12 29 0 -7
BITMAP
0000
0000
0000
0000
0000
0000
0000
0000
0000
cf30
6660
6660
6660
6660
6660
36c0
1f80
0600
0600
0600
0600
0600
0f00
0000
0000
0000
0000
0000
0000
ENDCHAR
STARTCHAR C0182
ENCODING 386
SWIDTH 666 0
DWIDTH 12 0
BBX 12 29 0 -7
BITMAP
0000
0000
0000
0000
0000
0000
0000
0000
0000
0f00
39c0
6060
4030
c030
c030
c030
c030
6060
70e0
1980
8910
f9f0
f9f0
0000
0000
0000
0000
0000
0000
ENDCHAR
STARTCHAR C0183
ENCODING 387
SWIDTH 666 0
DWIDTH 12 0
BBX 12 29 0 -7
BITMAP
0000
0000
0000
0000
0000
0000
0000
0000
0000
0000
0000
3fc0
3fc0
3fc0
3fc0
3fc0
3fc0
3fc0
3fc0
3fc0
3fc0
3fc0
3fc0
0000
0000
0000
0000
0000
0000
ENDCHAR
STARTCHAR C0184
ENCODING 388
SWIDTH 666 0
DWIDTH 12 0
BBX 12 29 0 -7
BITMAP
0000
0000
0000
0000
0000
0000
0000
0180
0300
0600
0c00
0000
0000
1c00
3620
2320
6340
6140
6180
6180
61c0
32c0
1c60
0000
0000
0000
0000
0000
0000
ENDCHAR
STARTCHAR C0185
ENCODING 389
SWIDTH 666 0
DWIDTH 12 0
BBX 12 29 0 -7
BITMAP
0000
0000
0000
0000
0000
0000
0000
00c0
0180
0300
0600
0000
0000
1f80
30c0
6000
3000
1f80
3000
6000
6000
30c0
1f80
0000
0000
0000
0000
0000
0000
ENDCHAR
STARTCHAR C0186
ENCODING 390
SWIDTH 666 0
DWIDTH 12 0
BBX 12 29 0 -7
BITMAP
0000
0000
0000
0000
0000
0000
0000
0180
0300
0600
0c00
0000
0000
2780
79c0
30c0
30c0
30c0
30c0
30c0
30c0
30c0
30c0
00c0
00c0
00c0
00c0
0000
0000
ENDCHAR
STARTCHAR C0187
ENCODING 391
SWIDTH 666 0
DWIDTH 12 0
BBX 12 29 0 -7
BITMAP
0000
0000
0000
0000
0000
0000
0000
0180
0300
0600
0c00
0000
0000
1e00
0600
0600
0600
0600
0600
0600
0600
0680
0300
0000
0000
0000
0000
0000
0000
ENDCHAR
STARTCHAR C0188
ENCODING 392
SWIDTH 666 0
DWIDTH 12 0
BBX 12 29 0 -7
BITMAP
0000
0000
0000
0000
0000
0600
0c00
1800
0000
3300
3300
0000
0000
7180
30c0
3060
3060
3060
3060
3060
30c0
3980
1f00
0000
0000
0000
0000
0000
0000
ENDCHAR
STARTCHAR C0189
ENCODING 393
SWIDTH 666 0
DWIDTH 12 0
BBX 12 29 0 -7
BITMAP
0000
0000
0000
0000
0000
0000
0000
0000
0000
0000
0000
0000
0000
1c00
3620
2320
6340
6140
6180
6180
61c0
32c0
1c60
0000
0000
0000
0000
0000
0000
ENDCHAR
STARTCHAR C018a
ENCODING 394
SWIDTH 666 0
DWIDTH 12 0
BBX 12 29 0 -7
BITMAP
0000
0000
0000
0000
0000
0000
0000
0000
0000
0f80
18c0
30c0
30c0
3080
3700
31c0
30c0
3060
3060
3060
3060
30c0
3f00
3000
3000
3000
3000
0000
0000
ENDCHAR
STARTCHAR C018b
ENCODING 395
SWIDTH 666 0
DWIDTH 12 0
BBX 12 29 0 -7
BITMAP
0000
0000
0000
0000
0000
0000
0000
0000
0000
0000
0000
0000
0000
1860
3cc0
24c0
0480
0580
0500
0700
0600
0600
0600
0e00
0e00
0e00
0400
0000
0000
ENDCHAR
STARTCHAR C018c
ENCODING 396
SWIDTH 666 0
DWIDTH 12 0
BBX 12 29 0 -7
BITMAP
0000
0000
0000
0000
0000
0000
0000
0000
0000
1f00
2180
2080
1000
0c00
0700
1980
30c0
60c0
60c0
60c0
60c0
3180
1f00
0000
0000
0000
0000
0000
0000
ENDCHAR
STARTCHAR C018d
ENCODING 397
SWIDTH 666 0
DWIDTH 12 0
BBX 12 29 0 -7
BITMAP
0000
0000
0000
0000
0000
0000
0000
0000
0000
0000
0000
0000
0000
1f80
30c0
6000
3000
1f80
3000
6000
6000
30c0
1f80
0000
0000
0000
0000
0000
0000
ENDCHAR
STARTCHAR C018e
ENCODING 398
SWIDTH 666 0
DWIDTH 12 0
BBX 12 29 0 -7
BITMAP
0000
0000
0000
0000
0000
0000
0000
0000
0000
10c0
11c0
0f80
0e00
0800
1000
1000
2000
2000
2000
2000
3000
3f80
1fc0
0040
0040
0040
0380
0000
0000
ENDCHAR
STARTCHAR C018f
ENCODING 399
SWIDTH 666 0
DWIDTH 12 0
BBX 12 29 0 -7
BITMAP
0000
0000
0000
0000
0000
0000
0000
0000
0000
0000
0000
0000
0000
2780
79c0
30c0
30c0
30c0
30c0
30c0
30c0
30c0
30c0
00c0
00c0
00c0
00c0
0000
0000
ENDCHAR
STARTCHAR C0190
ENCODING 400
SWIDTH 666 0
DWIDTH 12 0
BBX 12 29 0 -7
BITMAP
0000
0000
0000
0000
0000
0000
0000
0000
0000
0f00
1980
1180
30c0
30c0
30c0
3fc0
30c0
30c0
30c0
30c0
1880
1980
0f00
0000
0000
0000
0000
0000
0000
ENDCHAR
STARTCHAR C0191
ENCODING 401
SWIDTH 666 0
DWIDTH 12 0
BBX 12 29 0 -7
BITMAP
0000
0000
0000
0000
0000
0000
0000
0000
0000
0000
0000
0000
0000
1e00
0600
0600
0600
0600
0600
0600
0600
0680
0300
0000
0000
0000
0000
0000
0000
ENDCHAR
STARTCHAR C0192
ENCODING 402
SWIDTH 666 0
DWIDTH 12 0
BBX 12 29 0 -7
BITMAP
0000
0000
0000
0000
0000
0000
0000
0000
0000
0000
0000
0000
0000
78c0
31c0
3200
3400
3800
3c00
3600
3300
3180
70e0
0000
0000
0000
0000
0000
0000
ENDCHAR
STARTCHAR C0193
ENCODING 403
SWIDTH 666 0
DWIDTH 12 0
BBX 12 29 0 -7
BITMAP
0000
0000
0000
0000
0000
0000
0000
0000
0000
1800
3400
2400
0400
0200
0600
0600
0f00
0d00
1900
1890
3090
30f0
6060
0000
0000
0000
0000
0000
0000
ENDCHAR
STARTCHAR C0194
ENCODING 404
SWIDTH 666 0
DWIDTH 12 0
BBX 12 29 0 -7
BITMAP
0000
0000
0000
0000
0000
0000
0000
0000
0000
0000
0000
0000
0000
30c0
30c0
30c0
30c0
30c0
30c0
30c0
30c0
31d0
3e60
2000
2000
6000
6000
0000
0000
ENDCHAR
STARTCHAR C0195
ENCODING 405
SWIDTH 666 0
DWIDTH 12 0
BBX 12 29 0 -7
BITMAP
0000
0000
0000
0000
0000
0000
0000
0000
0000
0000
0000
0000
0000
30c0
70c0
18c0
18c0
1880
0c80
0d00
0d00
0600
0600
0000
0000
0000
0000
0000
0000
ENDCHAR
STARTCHAR C0196
ENCODING 406
SWIDTH 666 0
DWIDTH 12 0
BBX 12 29 0 -7
BITMAP
0000
0000
0000
0000
0000
0000
0000
0000
0000
10c0
11c0
0f80
0800
1000
1000
0f80
1800
3000
2000
2000
3000
3f80
1fc0
0040
0040
0040
0380
0000
0000
ENDCHAR
STARTCHAR C0197
ENCODING 407
SWIDTH 666 0
DWIDTH 12 0
BBX 12 29 0 -7
BITMAP
0000
0000
0000
0000
0000
0000
0000
0000
0000
0000
0000
0000
0000
7fe0
9180
1180
1180
1180
3180
3180
31a0
61e0
60c0
0000
0000
0000
0000
0000
0000
ENDCHAR
STARTCHAR C0198
ENCODING 408
SWIDTH 666 0
DWIDTH 12 0
BBX 12 29 0 -7
BITMAP
0000
0000
0000
0000
0000
0000
0000
0000
0000
0000
0000
0000
0000
0f80
10c0
3060
3060
3060
3060
3060
3040
38c0
3780
3000
3000
3000
3000
0000
0000
ENDCHAR
STARTCHAR C0199
ENCODING 409
SWIDTH 666 0
DWIDTH 12 0
BBX 12 29 0 -7
BITMAP
0000
0000
0000
0000
0000
0000
0000
0000
0000
0000
0000
0000
0000
07c0
08c0
1000
2000
2000
2000
2000
3000
1f80
0fc0
0040
0040
0040
0780
0000
0000
ENDCHAR
STARTCHAR C019a
ENCODING 410
SWIDTH 666 0
DWIDTH 12 0
BBX 12 29 0 -7
BITMAP
0000
0000
0000
0000
0000
0000
0000
0000
0000
0000
0000
0000
0000
1fe0
3000
2700
6180
60c0
60c0
60c0
7080
3180
1f00
0000
0000
0000
0000
0000
0000
ENDCHAR
STARTCHAR C019b
ENCODING 411
SWIDTH 666 0
DWIDTH 12 0
BBX 12 29 0 -7
BITMAP
0000
0000
0000
0000
0000
0000
0000
0000
0000
0000
0000
0000
0000
3fc0
4600
0600
0600
0c00
0c00
0c00
0c80
0f80
0700
0000
0000
0000
0000
0000
0000
ENDCHAR
STARTCHAR C019c
ENCODING 412
SWIDTH 666 0
DWIDTH 12 0
BBX 12 29 0 -7
BITMAP
0000
0000
0000
0000
0000
0000
0000
0000
0000
0000
0000
0000
0000
7180
30c0
3060
3060
3060
3060
3060
30c0
3980
1f00
0000
0000
0000
0000
0000
0000
ENDCHAR
STARTCHAR C019d
ENCODING 413
SWIDTH 666 0
DWIDTH 12 0
BBX 12 29 0 -7
BITMAP
0000
0000
0000
0000
0000
0000
0000
0000
0000
0000
0000
0000
0000
1980
32c0
6260
6260
6260
6260
6260
2260
32c0
1f80
0200
0200
0600
0600
0000
0000
ENDCHAR
STARTCHAR C019e
ENCODING 414
SWIDTH 666 0
DWIDTH 12 0
BBX 12 29 0 -7
BITMAP
0000
0000
0000
0000
0000
0000
0000
0000
0000
0000
0000
0000
0000
30c0
7980
4980
4b00
0b00
0600
0600
0c00
0c00
1a00
1a40
3240
33c0
6180
0000
0000
ENDCHAR
STARTCHAR C019f
ENCODING 415
SWIDTH 666 0
DWIDTH 12 0
BBX 12 29 0 -7
BITMAP
0000
0000
0000
0000
0000
0000
0000
0000
0000
0000
0000
0000
0000
c460
64c0
64c0
64c0
64c0
64c0
2480
2480
1500
0e00
0400
0400
0400
0400
0000
0000
ENDCHAR
STARTCHAR C01a0
ENCODING 416
SWIDTH 666 0
DWIDTH 12 0
BBX 12 29 0 -7
BITMAP
0000
0000
0000
0000
0000
0000
0000
0000
0000
0000
0000
0000
0000
3180
60c0
c460
c460
c460
c460
c460
c460
64c0
3b80
0000
0000
0000
0000
0000
0000
ENDCHAR
STARTCHAR C01a1
ENCODING 417
SWIDTH 666 0
DWIDTH 12 0
BBX 12 29 0 -7
BITMAP
0000
0000
0000
0000
0000
0000
0000
0000
0000
1980
1980
0000
0000
1e00
0600
0600
0600
0600
0600
0600
0600
0680
0300
0000
0000
0000
0000
0000
0000
ENDCHAR
STARTCHAR C01a2
ENCODING 418
SWIDTH 666 0
DWIDTH 12 0
BBX 12 29 0 -7
BITMAP
0000
0000
0000
0000
0000
0000
0000
0000
0000
3300
3300
0000
0000
7180
30c0
3060
3060
3060
3060
3060
30c0
3980
1f00
0000
0000
0000
0000
0000
0000
ENDCHAR
STARTCHAR C01a3
ENCODING 419
SWIDTH 666 0
DWIDTH 12 0
BBX 12 29 0 -7
BITMAP
0000
0000
0000
0000
0000
0000
0000
0000
0000
0000
0000
3fc0
3fc0
3fc0
3fc0
3fc0
3fc0
3fc0
3fc0
3fc0
3fc0
3fc0
3fc0
0000
0000
0000
0000
0000
0000
ENDCHAR
STARTCHAR C01a4
ENCODING 420
SWIDTH 666 0
DWIDTH 12 0
BBX 12 29 0 -7
BITMAP
0000
0000
0000
0000
0000
0000
0000
0300
0600
0c00
1800
0000
0000
7180
30c0
3060
3060
3060
3060
3060
30c0
3980
1f00
0000
0000
0000
0000
0000
0000
ENDCHAR
STARTCHAR C01a5
ENCODING 421
SWIDTH 666 0
DWIDTH 12 0
BBX 12 29 0 -7
BITMAP
0000
0000
0000
0000
0000
0000
0000
0180
0300
0600
0c00
0000
0000
3180
60c0
c460
c460
c460
c460
c460
c460
64c0
3b80
0000
0000
0000
0000
0000
0000
ENDCHAR
STARTCHAR C01a6
ENCODING 422
SWIDTH 666 0
DWIDTH 12 0
BBX 12 29 0 -7
BITMAP
0000
0000
0000
0000
0000
0000
0000
0000
0000
0000
0000
3fc0
3fc0
3fc0
3fc0
3fc0
3fc0
3fc0
3fc0
3fc0
3fc0
3fc0
3fc0
0000
0000
0000
0000
0000
0000
ENDCHAR
STARTCHAR C01a7
ENCODING 423
SWIDTH 666 0
DWIDTH 12 0
BBX 12 29 0 -7
BITMAP
0000
0000
0000
0000
0000
0000
0000
0000
0000
0000
0000
3fc0
3fc0
3fc0
3fc0
3fc0
3fc0
3fc0
3fc0
3fc0
3fc0
3fc0
3fc0
0000
0000
0000
0000
0000
0000
ENDCHAR
STARTCHAR C01a8
ENCODING 424
SWIDTH 666 0
DWIDTH 12 0
BBX 12 29 0 -7
BITMAP
0000
0000
0000
0000
0000
0000
0000
0000
0000
ffc0
8c40
0c00
0c00
0de0
0e70
0c30
0c30
0c30
0c30
0c30
0c30
0c30
1e30
0060
0060
04c0
0780
0000
0000
ENDCHAR
STARTCHAR C01a9
ENCODING 425
SWIDTH 666 0
DWIDTH 12 0
BBX 12 29 0 -7
BITMAP
0000
0000
0000
0180
0300
0600
0c00
0000
0000
7fe0
3060
3020
3000
3000
3000
3000
3000
3000
3000
3000
3000
3000
7800
0000
0000
0000
0000
0000
0000
ENDCHAR
STARTCHAR C01aa
ENCODING 426
SWIDTH 666 0
DWIDTH 12 0
BBX 12 29 0 -7
BITMAP
0000
0000
0000
0000
0000
0000
0000
0000
0000
07c0
0860
1020
3000
6000
6000
7fc0
6000
6000
6000
3000
3820
1c60
0780
0000
0000
0000
0000
0000
0000
ENDCHAR
STARTCHAR C01ab
ENCODING 427
SWIDTH 666 0
DWIDTH 12 0
BBX 12 29 0 -7
BITMAP
0000
0000
0000
0000
0000
0000
0000
0000
0000
3f80
1300
1300
1300
1300
1300
13e0
1330
1310
1310
1310
1310
b330
61e0
0000
0000
0000
0000
0000
0000
ENDCHAR
STARTCHAR C01ac
ENCODING 428
SWIDTH 666 0
DWIDTH 12 0
BBX 12 29 0 -7
BITMAP
0000
0000
0000
0000
0000
0000
0000
0000
0000
f780
6300
6300
6300
6300
6300
7fe0
6330
6310
6310
6310
6310
6330
f1e0
0000
0000
0000
0000
0000
0000
ENDCHAR
STARTCHAR C01ad
ENCODING 429
SWIDTH 666 0
DWIDTH 12 0
BBX 12 29 0 -7
BITMAP
0000
0000
0000
0000
0000
0000
0000
0000
0000
ff00
9900
1800
1800
1bc0
1ce0
1860
1860
1860
1860
1860
1860
1860
3cf0
0000
0000
0000
0000
0000
0000
ENDCHAR
STARTCHAR C01ae
ENCODING 430
SWIDTH 666 0
DWIDTH 12 0
BBX 12 29 0 -7
BITMAP
0000
0000
0000
0180
0300
0600
0c00
0000
0000
f0e0
6180
6300
6600
6c00
7800
7800
7c00
6e00
6700
6380
61c0
60e0
f070
0000
0000
0000
0000
0000
0000
ENDCHAR
STARTCHAR C01af
ENCODING 431
SWIDTH 666 0
DWIDTH 12 0
BBX 12 29 0 -7
BITMAP
0000
0000
0000
1800
0c00
0600
0300
0000
0000
f1e0
60c0
61c0
63c0
62c0
66c0
64c0
6cc0
68c0
78c0
70c0
60c0
60c0
f1e0
0000
0000
0000
0000
0000
0000
ENDCHAR
STARTCHAR C01b0
ENCODING 432
SWIDTH 666 0
DWIDTH 12 0
BBX 12 29 0 -7
BITMAP
0000
0000
0000
0000
0000
1980
0f00
0000
0000
f0f0
6060
3040
30c0
1880
1980
0d00
0f00
0600
0600
0400
0c00
3800
3000
0000
0000
0000
0000
0000
0000
ENDCHAR
STARTCHAR C01b1
ENCODING 433
SWIDTH 666 0
DWIDTH 12 0
BBX 12 29 0 -7
BITMAP
0000
0000
0000
0000
0000
0000
0000
0000
0000
f0f0
6060
6060
6060
6060
6060
6060
6060
6060
6060
6060
6060
6060
fff0
0600
0600
0000
0000
0000
0000
ENDCHAR
STARTCHAR C01b2
ENCODING 434
SWIDTH 666 0
DWIDTH 12 0
BBX 12 29 0 -7
BITMAP
0000
0000
0000
0000
0000
0000
0000
0000
0000
7fe0
3060
3020
3000
3000
3000
3f80
30c0
3060
3060
3060
3060
30c0
7f80
0000
0000
0000
0000
0000
0000
ENDCHAR
STARTCHAR C01b3
ENCODING 435
SWIDTH 666 0
DWIDTH 12 0
BBX 12 29 0 -7
BITMAP
0000
0000
0000
0000
0000
0000
0000
0000
0000
7fe0
20c0
20c0
20c0
20c0
20c0
20c0
20c0
20c0
20c0
20c0
20c0
60c0
ffe0
8020
8020
0000
0000
0000
0000
ENDCHAR
STARTCHAR C01b4
ENCODING 436
SWIDTH 666 0
DWIDTH 12 0
BBX 12 29 0 -7
BITMAP
0000
0000
0000
0000
0000
0000
0000
0000
0000
ef70
4620
6660
2640
36c0
1680
1f80
1f80
1f80
36c0
36c0
6660
6660
ef70
0000
0000
0000
0000
0000
0000
ENDCHAR
STARTCHAR C01b5
ENCODING 437
SWIDTH 666 0
DWIDTH 12 0
BBX 12 29 0 -7
BITMAP
0000
0000
0000
0000
0000
0000
0000
0000
0000
0000
0f80
19c0
20e0
4060
00c0
0380
0fc0
00e0
0060
4060
6040
3980
1f00
0000
0000
0000
0000
0000
0000
ENDCHAR
STARTCHAR C01b6
ENCODING 438
SWIDTH 666 0
DWIDTH 12 0
BBX 12 29 0 -7
BITMAP
0000
0000
0000
0000
0000
0000
0000
0000
0000
f1e0
60c0
61c0
63c0
62c0
66c0
64c0
6cc0
68c0
78c0
70c0
60c0
60c0
f1e0
0000
0000
0000
0000
0000
0000
ENDCHAR
STARTCHAR C01b7
ENCODING 439
SWIDTH 666 0
DWIDTH 12 0
BBX 12 29 0 -7
BITMAP
0000
0000
0000
0000
0000
1980
0f00
0000
0000
f1e0
60c0
61c0
63c0
62c0
66c0
64c0
6cc0
68c0
78c0
70c0
60c0
60c0
f1e0
0000
0000
0000
0000
0000
0000
ENDCHAR
STARTCHAR C01b8
ENCODING 440
SWIDTH 666 0
DWIDTH 12 0
BBX 12 29 0 -7
BITMAP
0000
0000
0000
0000
0000
0000
0000
0000
0000
3ff0
1060
1060
1060
1060
1060
1060
1060
1060
1060
1060
1060
b060
60f0
0000
0000
0000
0000
0000
0000
ENDCHAR
STARTCHAR C01b9
ENCODING 441
SWIDTH 666 0
DWIDTH 12 0
BBX 12 29 0 -7
BITMAP
0000
0000
0000
0000
0000
0000
0000
0000
0000
0000
0000
3fc0
3fc0
3fc0
3fc0
3fc0
3fc0
3fc0
3fc0
3fc0
3fc0
3fc0
3fc0
0000
0000
0000
0000
0000
0000
ENDCHAR
STARTCHAR C01ba
ENCODING 442
SWIDTH 666 0
DWIDTH 12 0
BBX 12 29 0 -7
BITMAP
0000
0000
0000
0000
0000
0000
0000
0000
0000
f0f0
6060
3040
30c0
1880
1980
0d00
0f00
0600
0600
0400
0c00
3800
3000
0000
0000
0000
0000
0000
0000
ENDCHAR
STARTCHAR C01bb
ENCODING 443
SWIDTH 666 0
DWIDTH 12 0
BBX 12 29 0 -7
BITMAP
0000
0000
0000
0000
0000
0000
0000
0000
0000
0000
0000
3fc0
3fc0
3fc0
3fc0
3fc0
3fc0
3fc0
3fc0
3fc0
3fc0
3fc0
3fc0
0000
0000
0000
0000
0000
0000
ENDCHAR
STARTCHAR C01bc
ENCODING 444
SWIDTH 666 0
DWIDTH 12 0
BBX 12 29 0 -7
BITMAP
0000
0000
0000
0000
0000
0000
0000
0000
0000
f1e0
60c0
60c0
60c0
60c0
60c0
60c0
60c0
60c0
60c0
60c0
60c0
60c0
ffe0
0060
0060
0000
0000
0000
0000
ENDCHAR
STARTCHAR C01bd
ENCODING 445
SWIDTH 666 0
DWIDTH 12 0
BBX 12 29 0 -7
BITMAP
0000
0000
0000
0000
0000
0000
0000
0000
0000
f1e0
60c0
60c0
60c0
60c0
60c0
70c0
3fc0
00c0
00c0
00c0
00c0
00c0
01e0
0000
0000
0000
0000
0000
0000
ENDCHAR
STARTCHAR C01be
ENCODING 446
SWIDTH 666 0
DWIDTH 12 0
BBX 12 29 0 -7
BITMAP
0000
0000
0000
0000
0000
0000
0000
0000
0000
f6f0
6660
6660
6660
6660
6660
6660
6660
6660
6660
6660
6660
6660
7fe0
0000
0000
0000
0000
0000
0000
ENDCHAR
STARTCHAR C01bf
ENCODING 447
SWIDTH 666 0
DWIDTH 12 0
BBX 12 29 0 -7
BITMAP
0000
0000
0000
0000
0000
0000
0000
0000
0000
f6f0
6660
6660
6660
6660
6660
6660
6660
6660
6660
6660
6660
6660
7ff0
0030
0030
0000
0000
0000
0000
ENDCHAR
STARTCHAR C01c0
ENCODING 448
SWIDTH 666 0
DWIDTH 12 0
BBX 12 29 0 -7
BITMAP
0000
0000
0000
0000
0000
0000
0000
0000
0000
fe00
8c00
0c00
0c00
0c00
0c00
0dc0
0e60
0c60
0c60
0c60
0c60
0c60
1fc0
0000
0000
0000
0000
0000
0000
ENDCHAR
STARTCHAR C01c1
ENCODING 449
SWIDTH 666 0
DWIDTH 12 0
BBX 12 29 0 -7
BITMAP
0000
0000
0000
0000
0000
0000
0000
0000
0000
f0f0
6060
6060
6060
6060
6060
6e60
7360
6360
6360
6360
6360
6360
fef0
0000
0000
0000
0000
0000
0000
ENDCHAR
STARTCHAR C01c2
ENCODING 450
SWIDTH 666 0
DWIDTH 12 0
BBX 12 29 0 -7
BITMAP
0000
0000
0000
0000
0000
0000
0000
0000
0000
3c00
1800
1800
1800
1800
1800
1b80
1cc0
18c0
18c0
18c0
18c0
18c0
3f80
0000
0000
0000
0000
0000
0000
ENDCHAR
STARTCHAR C01c3
ENCODING 451
SWIDTH 666 0
DWIDTH 12 0
BBX 12 29 0 -7
BITMAP
0000
0000
0000
0000
0000
0000
0000
0000
0000
3e00
6100
4080
00c0
0060
0060
3fe0
0060
0060
0060
00c0
41c0
6380
1e00
0000
0000
0000
0000
0000
0000
ENDCHAR
STARTCHAR C01c4
ENCODING 452
SWIDTH 666 0
DWIDTH 12 0
BBX 12 29 0 -7
BITMAP
0000
0000
0000
0000
0000
0000
0000
0000
0000
f1c0
6360
6220
6630
6630
6630
7e30
6630
6630
6630
6630
6220
6360
f1c0
0000
0000
0000
0000
0000
0000
ENDCHAR
STARTCHAR C01c5
ENCODING 453
SWIDTH 666 0
DWIDTH 12 0
BBX 12 29 0 -7
BITMAP
0000
0000
0000
0000
0000
0000
0000
0000
0000
0ff0
1860
3060
3060
3060
1060
0fe0
03e0
0760
0e60
1c60
3860
7060
e0f0
0000
0000
0000
0000
0000
0000
ENDCHAR
STARTCHAR C01c6
ENCODING 454
SWIDTH 666 0
DWIDTH 12 0
BBX 12 29 0 -7
BITMAP
0000
0000
0000
0000
0000
0000
0000
0000
0000
0000
0780
1e00
3000
6780
49c0
70e0
6060
6060
6060
6060
7040
3880
1f00
0000
0000
0000
0000
0000
0000
ENDCHAR
STARTCHAR C01c7
ENCODING 455
SWIDTH 666 0
DWIDTH 12 0
BBX 12 29 0 -7
BITMAP
0000
0000
0000
0000
0000
0000
0000
0000
0000
0000
0000
0000
0000
7f80
30c0
30c0
30c0
3f80
30c0
30c0
30c0
30c0
7f80
0000
0000
0000
0000
0000
0000
ENDCHAR
STARTCHAR C01c8
ENCODING 456
SWIDTH 666 0
DWIDTH 12 0
BBX 12 29 0 -7
BITMAP
0000
0000
0000
0000
0000
0000
0000
0000
0000
0000
0000
0000
0000
7fc0
30c0
3040
3000
3000
3000
3000
3000
3000
7800
0000
0000
0000
0000
0000
0000
ENDCHAR
STARTCHAR C01c9
ENCODING 457
SWIDTH 666 0
DWIDTH 12 0
BBX 12 29 0 -7
BITMAP
0000
0000
0000
0000
0000
0000
0000
0000
0000
0000
0000
0000
0000
7fe0
20c0
20c0
20c0
20c0
20c0
20c0
20c0
60c0
ffe0
8020
8020
0000
0000
0000
0000
ENDCHAR
STARTCHAR C01ca
ENCODING 458
SWIDTH 666 0
DWIDTH 12 0
BBX 12 29 0 -7
BITMAP
0000
0000
0000
0000
0000
0000
0000
0000
0000
0000
0000
0000
0000
6660
2640
1680
0f00
0600
0600
0f00
1680
26c0
6660
0000
0000
0000
0000
0000
0000
ENDCHAR
STARTCHAR C01cb
ENCODING 459
SWIDTH 666 0
DWIDTH 12 0
BBX 12 29 0 -7
BITMAP
0000
0000
0000
0000
0000
0000
0000
0000
0000
0000
0000
0000
0000
3f80
60c0
4060
01c0
1f80
00c0
0060
4060
31c0
1f80
0000
0000
0000
0000
0000
0000
ENDCHAR
STARTCHAR C01cc
ENCODING 460
SWIDTH 666 0
DWIDTH 12 0
BBX 12 29 0 -7
BITMAP
0000
0000
0000
0000
0000
0000
0000
0000
0000
0000
0000
0000
0000
78e0
31c0
31c0
33c0
36c0
3cc0
38c0
38c0
30c0
79e0
0000
0000
0000
0000
0000
0000
ENDCHAR
STARTCHAR C01cd
ENCODING 461
SWIDTH 666 0
DWIDTH 12 0
BBX 12 29 0 -7
BITMAP
0000
0000
0000
0000
0000
0000
0000
0000
0000
1980
0f00
0000
0000
78e0
31c0
31c0
33c0
36c0
3cc0
38c0
38c0
30c0
79e0
0000
0000
0000
0000
0000
0000
ENDCHAR
STARTCHAR C01ce
ENCODING 462
SWIDTH 666 0
DWIDTH 12 0
BBX 12 29 0 -7
BITMAP
0000
0000
0000
0000
0000
0000
0000
0000
0000
0000
0000
3fc0
3fc0
3fc0
3fc0
3fc0
3fc0
3fc0
3fc0
3fc0
3fc0
3fc0
3fc0
0000
0000
0000
0000
0000
0000
ENDCHAR
STARTCHAR C01cf
ENCODING 463
SWIDTH 666 0
DWIDTH 12 0
BBX 12 29 0 -7
BITMAP
0000
0000
0000
0000
0000
0000
0000
0000
0000
0000
0000
0000
0000
7fe0
20c0
20c0
20c0
20c0
20c0
20c0
20c0
60c0
c1e0
0000
0000
0000
0000
0000
0000
ENDCHAR
STARTCHAR C01d0
ENCODING 464
SWIDTH 666 0
DWIDTH 12 0
BBX 12 29 0 -7
BITMAP
0000
0000
0000
0000
0000
0000
0000
0000
0000
0000
0000
0000
0000
f1e0
60c0
71c0
7bc0
7fc0
6ec0
64c0
60c0
60c0
f1e0
0000
0000
0000
0000
0000
0000
ENDCHAR
STARTCHAR C01d1
ENCODING 465
SWIDTH 666 0
DWIDTH 12 0
BBX 12 29 0 -7
BITMAP
0000
0000
0000
0000
0000
0000
0000
0000
0000
0000
0000
0000
0000
f1e0
60c0
60c0
60c0
7fc0
60c0
60c0
60c0
60c0
f1e0
0000
0000
0000
0000
0000
0000
ENDCHAR
STARTCHAR C01d2
ENCODING 466
SWIDTH 666 0
DWIDTH 12 0
BBX 12 29 0 -7
BITMAP
0000
0000
0000
0000
0000
0000
0000
0000
0000
0000
0000
0000
0000
7fe0
30c0
30c0
30c0
30c0
30c0
30c0
30c0
30c0
79e0
0000
0000
0000
0000
0000
0000
ENDCHAR
STARTCHAR C01d3
ENCODING 467
SWIDTH 666 0
DWIDTH 12 0
BBX 12 29 0 -7
BITMAP
0000
0000
0000
0000
0000
0000
0000
0000
0000
0000
0000
0000
0000
7fe0
4620
0600
0600
0600
0600
0600
0600
0600
1f80
0000
0000
0000
0000
0000
0000
ENDCHAR
STARTCHAR C01d4
ENCODING 468
SWIDTH 666 0
DWIDTH 12 0
BBX 12 29 0 -7
BITMAP
0000
0000
0000
0000
0000
0000
0000
0000
0000
0000
0000
3fc0
3fc0
3fc0
3fc0
3fc0
3fc0
3fc0
3fc0
3fc0
3fc0
3fc0
3fc0
0000
0000
0000
0000
0000
0000
ENDCHAR
STARTCHAR C01d5
ENCODING 469
SWIDTH 666 0
DWIDTH 12 0
BBX 12 29 0 -7
BITMAP
0000
0000
0000
0000
0000
0000
0000
0000
0e00
0600
0600
0600
0600
1f80
26c0
2660
6660
6660
6660
6660
6640
3640
1f80
0600
0600
0600
0f00
0000
0000
ENDCHAR
STARTCHAR C01d6
ENCODING 470
SWIDTH 666 0
DWIDTH 12 0
BBX 12 29 0 -7
BITMAP
0000
0000
0000
0000
0000
0000
0000
0000
0000
0000
0000
0000
0000
79e0
30c0
30c0
30c0
30c0
30c0
30c0
30c0
30c0
7fe0
0060
0060
0000
0000
0000
0000
ENDCHAR
STARTCHAR C01d7
ENCODING 471
SWIDTH 666 0
DWIDTH 12 0
BBX 12 29 0 -7
BITMAP
0000
0000
0000
0000
0000
0000
0000
0000
0000
0000
0000
0000
0000
79e0
30c0
30c0
30c0
38c0
1fc0
00c0
00c0
00c0
01e0
0000
0000
0000
0000
0000
0000
ENDCHAR
STARTCHAR C01d8
ENCODING 472
SWIDTH 666 0
DWIDTH 12 0
BBX 12 29 0 -7
BITMAP
0000
0000
0000
0000
0000
0000
0000
0000
0000
0000
0000
0000
0000
f6e0
66c0
66c0
66c0
66c0
66c0
66c0
66c0
66c0
7fc0
0000
0000
0000
0000
0000
0000
ENDCHAR
STARTCHAR C01d9
ENCODING 473
SWIDTH 666 0
DWIDTH 12 0
BBX 12 29 0 -7
BITMAP
0000
0000
0000
0000
0000
0000
0000
0000
0000
0000
0000
0000
0000
f6e0
66c0
66c0
66c0
66c0
66c0
66c0
66c0
66c0
7fe0
0060
0060
0000
0000
0000
0000
ENDCHAR
STARTCHAR C01da
ENCODING 474
SWIDTH 666 0
DWIDTH 12 0
BBX 12 29 0 -7
BITMAP
0000
0000
0000
0000
0000
0000
0000
0000
0000
0000
0000
0000
0000
7e00
4c00
0c00
0c00
0dc0
0e60
0c60
0c60
0e60
1bc0
0000
0000
0000
0000
0000
0000
ENDCHAR
STARTCHAR C01db
ENCODING 475
SWIDTH 666 0
DWIDTH 12 0
BBX 12 29 0 -7
BITMAP
0000
0000
0000
0000
0000
0000
0000
0000
0000
0000
0000
0000
0000
f1e0
60c0
60c0
60c0
6cc0
76c0
66c0
66c0
76c0
dde0
0000
0000
0000
0000
0000
0000
ENDCHAR
STARTCHAR C01dc
ENCODING 476
SWIDTH 666 0
DWIDTH 12 0
BBX 12 29 0 -7
BITMAP
0000
0000
0000
0000
0000
0000
0000
0000
0000
0000
0000
0000
0000
3c00
1800
1800
1800
1b80
1cc0
18c0
18c0
1cc0
3780
0000
0000
0000
0000
0000
0000
ENDCHAR
STARTCHAR C01dd
ENCODING 477
SWIDTH 666 0
DWIDTH 12 0
BBX 12 29 0 -7
BITMAP
0000
0000
0000
0000
0000
0000
0000
0000
0000
0000
0000
0000
0000
1f00
60c0
00c0
0060
3fe0
0060
0060
40c0
6180
1e00
0000
0000
0000
0000
0000
0000
ENDCHAR
STARTCHAR C01de
ENCODING 478
SWIDTH 666 0
DWIDTH 12 0
BBX 12 29 0 -7
BITMAP
0000
0000
0000
0000
0000
0000
0000
0000
0000
0000
0000
0000
0000
f3c0
66e0
6460
6420
7c20
6420
6420
6620
6760
f3c0
0000
0000
0000
0000
0000
0000
ENDCHAR
STARTCHAR C01df
ENCODING 479
SWIDTH 666 0
DWIDTH 12 0
BBX 12 29 0 -7
BITMAP
0000
0000
0000
0000
0000
0000
0000
0000
0000
0000
0000
0000
0000
1fe0
30c0
60c0
30c0
1fc0
06c0
0cc0
18c0
30c0
71e0
0000
0000
0000
0000
0000
0000
ENDCHAR
STARTCHAR C01e0
ENCODING 480
SWIDTH 666 0
DWIDTH 12 0
BBX 12 29 0 -7
BITMAP
0000
0000
0000
0000
0000
0000
0000
0000
7000
3000
3000
7f00
3000
3780
39c0
30c0
30c0
30c0
30c0
30c0
30c0
30c0
78c0
0180
0180
0300
0200
0000
0000
ENDCHAR
STARTCHAR C01e1
ENCODING 481
SWIDTH 666 0
DWIDTH 12 0
BBX 12 29 0 -7
BITMAP
0000
0000
0000
0000
0000
0000
0000
0300
0600
0c00
1800
0000
0000
7fc0
30c0
3040
3000
3000
3000
3000
3000
3000
7800
0000
0000
0000
0000
0000
0000
ENDCHAR
STARTCHAR C01e2
ENCODING 482
SWIDTH 666 0
DWIDTH 12 0
BBX 12 29 0 -7
BITMAP
0000
0000
0000
0000
0000
0000
0000
0000
0000
0000
0000
0000
0000
0f80
1060
3020
6000
7fc0
6000
3000
3820
1c60
0780
0000
0000
0000
0000
0000
0000
ENDCHAR
STARTCHAR C01e3
ENCODING 483
SWIDTH 666 0
DWIDTH 12 0
BBX 12 29 0 -7
BITMAP
0000
0000
0000
0000
0000
0000
0000
0000
0000
0000
0000
0000
0000
7f00
2600
2600
2600
26c0
2760
2660
2660
6760
cdc0
0000
0000
0000
0000
0000
0000
ENDCHAR
STARTCHAR C01e4
ENCODING 484
SWIDTH 666 0
DWIDTH 12 0
BBX 12 29 0 -7
BITMAP
0000
0000
0000
0000
0000
0000
0000
0000
0000
0000
0000
0000
0000
f700
6600
6600
6600
7ec0
6760
6660
6660
6760
f5c0
0000
0000
0000
0000
0000
0000
ENDCHAR
STARTCHAR C01e5
ENCODING 485
SWIDTH 666 0
DWIDTH 12 0
BBX 12 29 0 -7
BITMAP
0000
0000
0000
0000
0000
0000
0000
0000
7000
3000
3000
3000
3000
7f00
3000
3000
3000
3780
39c0
30c0
30c0
30c0
79e0
0000
0000
0000
0000
0000
0000
ENDCHAR
STARTCHAR C01e6
ENCODING 486
SWIDTH 666 0
DWIDTH 12 0
BBX 12 29 0 -7
BITMAP
0000
0000
0000
0000
0000
0000
0000
0300
0600
0c00
1800
0000
0000
79c0
3100
3200
3400
3800
3c00
3600
3300
3180
78e0
0000
0000
0000
0000
0000
0000
ENDCHAR
STARTCHAR C01e7
ENCODING 487
SWIDTH 666 0
DWIDTH 12 0
BBX 12 29 0 -7
BITMAP
0000
0000
0000
0000
0000
0000
0000
1800
0c00
0600
0300
0000
0000
78e0
31c0
31c0
33c0
36c0
3cc0
38c0
38c0
30c0
79e0
0000
0000
0000
0000
0000
0000
ENDCHAR
STARTCHAR C01e8
ENCODING 488
SWIDTH 666 0
DWIDTH 12 0
BBX 12 29 0 -7
BITMAP
0000
0000
0000
0000
0000
0000
0000
0000
0000
1980
0f00
0000
0000
f0e0
6040
3040
30c0
1880
1980
0d00
0f00
0600
0600
0400
0c00
0800
7000
0000
0000
ENDCHAR
STARTCHAR C01e9
ENCODING 489
SWIDTH 666 0
DWIDTH 12 0
BBX 12 29 0 -7
BITMAP
0000
0000
0000
0000
0000
0000
0000
0000
0000
0000
0000
0000
0000
79e0
30c0
30c0
30c0
30c0
30c0
30c0
30c0
30c0
7fe0
0600
0600
0000
0000
0000
0000
ENDCHAR
STARTCHAR C01ea
ENCODING 490
SWIDTH 666 0
DWIDTH 12 0
BBX 12 29 0 -7
BITMAP
0000
0000
0000
0000
0000
1980
0f00
0000
0000
f1e0
60c0
61c0
63c0
62c0
66c0
64c0
6cc0
68c0
78c0
70c0
60c0
60d0
f1e0
00c0
0380
0000
0000
0000
0000
ENDCHAR
STARTCHAR C01eb
ENCODING 491
SWIDTH 666 0
DWIDTH 12 0
BBX 12 29 0 -7
BITMAP
0000
0000
0000
0000
0000
0000
0000
0000
0000
1980
0f00
0000
0000
71e0
31c0
33c0
32c0
36c0
3cc0
38c0
38c0
30d0
79e0
00c0
0380
0000
0000
0000
0000
ENDCHAR
STARTCHAR C01ec
ENCODING 492
SWIDTH 666 0
DWIDTH 12 0
BBX 12 29 0 -7
BITMAP
0000
0000
0000
0000
0000
0000
0000
0000
0000
3c00
1800
1800
1800
7e00
1800
1800
1b80
1cc0
18c0
18c0
18c0
1cc0
3780
0000
0000
0000
0000
0000
0000
ENDCHAR
STARTCHAR C01ed
ENCODING 493
SWIDTH 666 0
DWIDTH 12 0
BBX 12 29 0 -7
BITMAP
0000
0000
0000
0000
0000
0000
0000
0000
0000
0000
0000
0000
0000
3c00
1800
7e00
1800
1b80
1cc0
18c0
18c0
1cc0
3780
0000
0000
0000
0000
0000
0000
ENDCHAR
STARTCHAR C01ee
ENCODING 494
SWIDTH 666 0
DWIDTH 12 0
BBX 12 29 0 -7
BITMAP
0000
0000
0000
0000
0000
0000
0000
0000
0000
ff00
6180
60c0
60c0
66c0
63c0
7180
6ec0
6060
6000
6000
6000
6000
f000
0000
0000
0000
0000
0000
0000
ENDCHAR
STARTCHAR C01ef
ENCODING 495
SWIDTH 666 0
DWIDTH 12 0
BBX 12 29 0 -7
BITMAP
0000
0000
0000
0000
0000
0000
0000
0000
0000
0000
0000
0000
0000
ef00
71c0
60e0
6060
6060
6660
6360
71c0
68c0
6760
6000
6000
6000
f000
0000
0000
ENDCHAR
STARTCHAR C01f0
ENCODING 496
SWIDTH 666 0
DWIDTH 12 0
BBX 12 29 0 -7
BITMAP
0000
0000
0000
0000
0000
0000
0000
0020
0060
7fe0
3000
3000
3000
3000
3000
3000
3000
3000
3000
3000
3000
3000
7800
0000
0000
0000
0000
0000
0000
ENDCHAR
STARTCHAR C01f1
ENCODING 497
SWIDTH 666 0
DWIDTH 12 0
BBX 12 29 0 -7
BITMAP
0000
0000
0000
0000
0000
0000
0000
0000
0000
0000
0000
0040
00c0
7fc0
3000
3000
3000
3000
3000
3000
3000
3000
7800
0000
0000
0000
0000
0000
0000
ENDCHAR
STARTCHAR C01f2
ENCODING 498
SWIDTH 666 0
DWIDTH 12 0
BBX 12 29 0 -7
BITMAP
0000
0000
0000
0000
0000
0000
0000
0000
0000
f000
6000
6000
6000
6000
6700
7980
60c0
60c0
60c0
60c0
60c0
60c0
f1e0
0000
0000
0000
0000
0000
0000
ENDCHAR
STARTCHAR C01f3
ENCODING 499
SWIDTH 666 0
DWIDTH 12 0
BBX 12 29 0 -7
BITMAP
0000
0000
0000
0000
0000
0000
0000
0000
0000
0000
7000
3000
3000
3000
3700
3980
30c0
30c0
30c0
30c0
30c0
30c0
79e0
0000
0000
0000
0000
0000
0000
ENDCHAR
STARTCHAR C01f4
ENCODING 500
SWIDTH 666 0
DWIDTH 12 0
BBX 12 29 0 -7
BITMAP
0000
0000
0000
0000
0000
1980
0f00
0000
0000
ef70
4620
6660
2640
36c0
1680
1f80
1f80
1f80
36c0
36c0
6660
6660
ef70
0000
0000
0000
0000
0000
0000
ENDCHAR
STARTCHAR C01f5
ENCODING 501
SWIDTH 666 0
DWIDTH 12 0
BBX 12 29 0 -7
BITMAP
0000
0000
0000
0000
0000
0000
0000
0000
0000
1980
0f00
0000
0000
6660
2640
1680
0f00
0600
0600
0f00
1680
36c0
6660
0000
0000
0000
0000
0000
0000
ENDCHAR
STARTCHAR C01f6
ENCODING 502
SWIDTH 666 0
DWIDTH 12 0
BBX 12 29 0 -7
BITMAP
0000
0000
0000
0000
0000
0000
0000
0000
0000
3fe0
10c0
10c0
10c0
10c0
10c0
10c0
10c0
10c0
10c0
10c0
10c0
b0d0
61e0
00c0
0380
0000
0000
0000
0000
ENDCHAR
STARTCHAR C01f7
ENCODING 503
SWIDTH 666 0
DWIDTH 12 0
BBX 12 29 0 -7
BITMAP
0000
0000
0000
0000
0000
0000
0000
0000
0000
0000
0000
0000
0000
7fe0
20c0
20c0
20c0
20c0
20c0
20c0
20c0
60d0
c1e0
00c0
0380
0000
0000
0000
0000
ENDCHAR
STARTCHAR C01f8
ENCODING 504
SWIDTH 666 0
DWIDTH 12 0
BBX 12 29 0 -7
BITMAP
0000
0000
0000
0000
0000
0000
0000
0000
0000
f1e0
60c0
60c0
60c0
60c0
60c0
60c0
7fc0
60c0
60c0
60c0
60c0
60c0
f1e0
00c0
01c0
0b00
0e00
0000
0000
ENDCHAR
STARTCHAR C01f9
ENCODING 505
SWIDTH 666 0
DWIDTH 12 0
BBX 12 29 0 -7
BITMAP
0000
0000
0000
0000
0000
0000
0000
0000
0000
0000
0000
0000
0000
f1e0
60c0
60c0
60c0
7fc0
60c0
60c0
60c0
60c0
f1e0
00c0
01c0
0b00
0e00
0000
0000
ENDCHAR
STARTCHAR C01fa
ENCODING 506
SWIDTH 666 0
DWIDTH 12 0
BBX 12 29 0 -7
BITMAP
0000
0000
0000
0000
0000
0000
0000
0000
0000
f1e0
60c0
60c0
60c0
60c0
60c0
60c0
7fc0
60c0
60c0
60c0
60c0
60d0
f1e0
00c0
0380
0000
0000
0000
0000
ENDCHAR
STARTCHAR C01fb
ENCODING 507
SWIDTH 666 0
DWIDTH 12 0
BBX 12 29 0 -7
BITMAP
0000
0000
0000
0000
0000
0000
0000
0000
0000
0000
0000
0000
0000
f1e0
60c0
60c0
60c0
7fc0
60c0
60c0
60c0
60d0
f1e0
00c0
0380
0000
0000
0000
0000
ENDCHAR
STARTCHAR C01fc
ENCODING 508
SWIDTH 666 0
DWIDTH 12 0
BBX 12 29 0 -7
BITMAP
0000
0000
0000
0000
0000
0000
0000
0000
0000
e070
60e0
70e0
70e0
70e0
5960
5960
5960
4d60
4e60
4e60
4460
4460
e4f0
0060
01c0
0000
0000
0000
0000
ENDCHAR
STARTCHAR C01fd
ENCODING 509
SWIDTH 666 0
DWIDTH 12 0
BBX 12 29 0 -7
BITMAP
0000
0000
0000
0000
0000
0000
0000
0000
0000
0000
0000
0000
0000
f1e0
60c0
60c0
71c0
71c0
7bc0
6ac0
6ec0
64d0
f5e0
00c0
0380
0000
0000
0000
0000
ENDCHAR
STARTCHAR C01fe
ENCODING 510
SWIDTH 666 0
DWIDTH 12 0
BBX 12 29 0 -7
BITMAP
0000
0000
0000
0000
0000
1980
1980
0000
0000
3e00
6100
4080
00c0
0060
0060
3fe0
0060
0060
0060
00c0
41c0
6380
1e00
0000
0000
0000
0000
0000
0000
ENDCHAR
STARTCHAR C01ff
ENCODING 511
SWIDTH 666 0
DWIDTH 12 0
BBX 12 29 0 -7
BITMAP
0000
0000
0000
0000
0000
0000
0000
0000
0000
1980
1980
0000
0000
1f00
6180
00c0
0060
3fe0
0060
0060
40c0
6180
1e00
0000
0000
0000
0000
0000
0000
ENDCHAR
ENDFONT
